<svg xmlns="http://www.w3.org/2000/svg" xmlns:xlink="http://www.w3.org/1999/xlink" width="2050" height="776" viewBox="0 0 2050 776"><defs><path id="9c49a" d="M1305.969 5155.842c7.197 0 13.031 5.79 13.031 12.933 0 7.146-5.834 12.936-13.031 12.936-3.51 0-6.68-1.392-9.026-3.628-3.894 11.241-14.618 19.335-27.269 19.335-12.902 0-23.822-8.408-27.515-20.002a26.111 26.111 0 0 1-9.305 1.728c-14.395 0-26.063-11.577-26.068-25.858-8.998 27.945-35.368 48.185-66.509 48.185-31.484 0-58.096-20.685-66.802-49.11a57.417 57.417 0 0 1-9.554 13.233c9.812 5.334 16.469 15.676 16.469 27.564 0 17.349-14.174 31.413-31.653 31.413-17.48 0-31.653-14.064-31.653-31.413 0-3.511.607-6.876 1.68-10.032-27.633-1.645-49.981-22.536-53.637-49.381a62.504 62.504 0 0 1-18.095 18.963 74.305 74.305 0 0 1 3.337 22.074c0 41.332-33.759 74.84-75.403 74.84-29.788 0-55.534-17.15-67.784-42.035a41.04 41.04 0 0 1-26.39 9.557c-22.662 0-41.034-18.234-41.034-40.728 0-4.523.773-8.86 2.147-12.925-35.155-2.1-63.76-28.279-69.288-62.148-.224-.425-.448-.85-.663-1.278a80.914 80.914 0 0 1-23.02 23.908 96.305 96.305 0 0 1 4.328 28.62c0 53.588-43.769 97.028-97.761 97.028-4.81 0-9.532-.361-14.157-1.028-4.98.656-10.055 1.028-15.214 1.028-38.755 0-73.009-19.049-93.84-48.205-18.02 45.421-62.583 77.584-114.75 77.584-49.292 0-91.81-28.712-111.55-70.196-26.746 25.272-62.909 40.817-102.753 40.817-82.336 0-149.082-66.248-149.082-147.964 0-3.098.129-6.162.316-9.21-2.508.186-5.033.311-7.589.311-27.815 0-52.998-11.194-71.223-29.29-16.398 98.764-102.783 174.114-206.94 174.114-59.065 0-112.393-24.263-150.519-63.253-26.46 23.82-61.581 38.334-100.118 38.334-82.336 0-149.082-66.246-149.082-147.964 0-70.196 49.267-128.932 115.341-144.113-29.942-25.378-48.953-63.092-48.953-105.235 0-25.545 7.001-49.45 19.162-69.985-27.023-8.741-46.56-33.936-46.56-63.673 0-36.986 30.211-66.968 67.477-66.968 36.919 0 66.895 29.435 67.449 65.946a140.69 140.69 0 0 1 31.871-3.676c64.199 0 118.225 43.082 134.42 101.695a119.409 119.409 0 0 1 16.323-17.293c-40.65-24.372-67.833-68.638-67.833-119.213 0-6.826.518-13.53 1.473-20.093-20.763-9.814-35.116-30.827-35.116-55.168 0-33.733 27.552-61.078 61.537-61.078 16.077 0 30.703 6.124 41.666 16.14 20.757-12.05 44.894-18.985 70.677-18.985 54.834 0 102.284 31.254 125.34 76.776 18.608-29.996 51.988-50.003 90.082-50.003 58.385 0 105.717 46.977 105.717 104.923 0 5.038-.38 9.986-1.072 14.831 18.865-11.627 41.115-18.362 64.957-18.362 24.383 0 47.092 7.052 66.226 19.171 21.435-31.977 58.06-53.06 99.662-53.06 56.26 0 103.426 38.557 116.2 90.493 15.03-5.479 31.27-8.47 48.214-8.47 50.62 0 94.953 26.688 119.513 66.656a139.85 139.85 0 0 1 17.871 21.835 95.453 95.453 0 0 1 15.929 12.83c16.914-20.826 42.814-34.162 71.863-34.162 39.889 0 73.86 25.122 86.745 60.294a58.503 58.503 0 0 1 6.086-10.158c-7.614-11.072-12.07-24.45-12.07-38.864 0-38.131 31.143-69.04 69.562-69.04s69.565 30.909 69.565 69.04c0 21.032-9.49 39.856-24.436 52.517 2.57 6.58 4.031 13.706 4.031 21.185 0 5.199-.745 10.214-2.024 15.015 39.67 10.963 70.114 43.846 77.267 84.683a60.615 60.615 0 0 1 13.574-7.346c5.7-6.027 13.773-9.814 22.756-9.814 9.552 0 18.087 4.265 23.818 10.97a60.807 60.807 0 0 1 7.846 4.214 62.455 62.455 0 0 1 20.643-6.604c2.285-22.883 21.73-40.759 45.384-40.759 25.195 0 45.617 20.271 45.617 45.274 0 16.66-9.093 31.177-22.597 39.04a61.51 61.51 0 0 1 2.64 17.845c0 .014-.003.028-.003.045 32.487 6.357 56.99 34.774 56.99 68.879 0 3.718-.297 7.366-.857 10.927a70.55 70.55 0 0 1 7.984-.836c-3.02-3.54-4.851-8.116-4.851-13.12 0-11.224 9.17-20.326 20.48-20.326a20.477 20.477 0 0 1 18.365 11.372c6.267-3.868 13.638-6.135 21.56-6.135 22.623 0 40.962 18.199 40.962 40.65 0 3.963-.6 7.778-1.66 11.398.347-.011.688-.053 1.04-.053 18.508 0 33.51 14.892 33.51 33.263 0 8.974-3.597 17.104-9.42 23.086a28.872 28.872 0 0 1 12.731-2.965c12.651 0 23.376 8.091 27.27 19.335 2.345-2.236 5.514-3.628 9.025-3.628m-499.898-11.467c8.328-18.557 24.03-33.132 43.425-40.04a61.62 61.62 0 0 1-.07-2.697c0-3.229.252-6.396.731-9.488a51.578 51.578 0 0 1-25.36 16.178 88.007 88.007 0 0 1-11.283 14.023 74.502 74.502 0 0 1-13 18.351 41.257 41.257 0 0 1 5.557 3.673m-129.238-130.651a88.117 88.117 0 0 1 25.911-25.8c.177-2.407.42-4.79.778-7.141a80.824 80.824 0 0 1-19.721-10.353 78.334 78.334 0 0 1-19.358 5.977c6.581 11.183 10.923 23.816 12.39 37.317m-269.785-5.012c23.412 0 43.526 13.804 52.666 33.633a114.86 114.86 0 0 1 27.56-14.29 91.182 91.182 0 0 1-.107-4.114 93.363 93.363 0 0 1 10.927-43.915 81.13 81.13 0 0 1-11.542-6.587c.176 1.367.3 2.753.3 4.17 0 17.896-14.617 32.4-32.653 32.4-16.421 0-29.973-12.043-32.269-27.708-3.127-.26-6.237-.589-9.302-1.047-2.195 10.426-6.817 19.96-13.239 28.016 2.514-.328 5.059-.558 7.66-.558M274.081 4832.08a120.813 120.813 0 0 1-25.236 2.673c-22.334 0-43.226-6.093-61.114-16.665a123.187 123.187 0 0 1-12.463 16.581c.257-.003.512-.02.772-.02 56.21 0 103.604 37.343 118.454 88.382a68.272 68.272 0 0 1 14.445-12.45c-19.176-21.297-31.84-48.483-34.858-78.501m-190.351 43.846c-.258.003-.512.02-.773.02-14.621 0-28.638-2.54-41.65-7.175 6.82 7.458 11.01 17.327 11.01 28.19 0 16.523-9.635 30.776-23.61 37.64a99.144 99.144 0 0 1 15.154 31.323 148.155 148.155 0 0 1 9-3.551c-.076-1.77-.137-3.545-.137-5.334 0-31.124 11.73-59.517 31.006-81.113m-272.54-151.707a140.493 140.493 0 0 1-34.085 32.838c13.216 10.21 24.21 23.105 32.138 37.884a122.426 122.426 0 0 1 7.52-10.447 88.294 88.294 0 0 1-8.458-37.789 88.67 88.67 0 0 1 2.886-22.486m443.46 327.119c18.416-10.861 39.917-17.118 62.894-17.118 13.237 0 25.973 2.092 37.927 5.923 1.148-2.236 2.41-4.4 3.833-6.454a69.02 69.02 0 0 1-13.371 1.309 68.21 68.21 0 0 1-56.498-29.807c-7.78 18.02-19.785 33.813-34.785 46.147m719.153 43.647c4.788-7.353 11.232-13.516 18.803-18.034a69.611 69.611 0 0 1-4.267-24.073c0-3.61.277-7.152.803-10.615a62.47 62.47 0 0 1-15.255-8.017c-7.699 3.524-16.238 5.541-25.272 5.541-16.224 0-30.925-6.374-41.793-16.695-8.99 11.721-22.089 20.166-37.17 23.206a91.297 91.297 0 0 1-7.478 9.37c.081 1.153.18 2.3.18 3.47 0 1.724-.093 3.424-.261 5.103 11.394-14.886 29.41-24.504 49.696-24.504 32.182 0 58.663 24.19 62.014 55.248m311.694 27.957c0-8.677 7.086-15.709 15.828-15.709 8.74 0 15.825 7.032 15.825 15.709 0 8.68-7.085 15.714-15.825 15.714-8.742 0-15.828-7.034-15.828-15.714m-160.22-133.555c0-12.389 10.116-22.432 22.596-22.432 12.483 0 22.597 10.043 22.597 22.432s-10.114 22.432-22.597 22.432c-12.48 0-22.597-10.043-22.597-22.432m-217.427-136.625c0-18.887 15.43-34.202 34.458-34.202 19.033 0 34.464 15.315 34.464 34.202 0 18.89-15.43 34.202-34.464 34.202-19.028 0-34.458-15.311-34.458-34.202m-361.846-129.179c0-9.421 7.69-17.057 17.181-17.057 9.484 0 17.178 7.636 17.178 17.057 0 9.419-7.694 17.054-17.178 17.054-9.49 0-17.18-7.635-17.18-17.054M301.417 4567.01c0-22.175 18.113-40.15 40.455-40.15 22.345 0 40.454 17.975 40.454 40.15 0 22.174-18.11 40.15-40.454 40.15-22.342 0-40.455-17.976-40.455-40.15"/><path id="9c49b" d="M878.478 5140.471c19.035 0 34.522 15.47 34.522 34.488V5213h-16.789v-38.04c0-9.769-7.955-17.716-17.733-17.716h-4.972a34.233 34.233 0 0 1 4.917 17.715V5213h-16.789v-38.04c0-9.769-7.955-17.716-17.733-17.716h-4.973a34.233 34.233 0 0 1 4.917 17.715V5213h-16.789v-38.04c0-9.769-7.955-17.716-17.734-17.716h-5.462V5213H-31v-105.518h82v-128.744c0-58.53 47.491-105.976 106.077-105.976h6.074c1.41 0 2.812.036 4.21.09v-.09h118.193v-43.565c0-13.915 11.292-25.197 25.222-25.197h18.08c13.93 0 25.222 11.282 25.222 25.197v43.565h118.934v.09c1.398-.054 2.8-.09 4.209-.09h6.074c58.585 0 106.078 47.447 106.078 105.976v80.19c.5-.002 1-.007 1.504-.007 55.924 0 101.26 14.216 101.26 31.754 0 .145-.012.29-.018.435v17.765c3.45-.111 6.954-.169 10.498-.169 55.925 0 101.26 14.216 101.26 31.753v.012zm-575.896-81.118c0 .688.094 1.354.256 1.993h33.956c.16-.64.256-1.305.256-1.993v-230.156c0-4.514-3.675-8.186-8.194-8.186h-18.08c-4.519 0-8.194 3.672-8.194 8.186zm-308.57 92.392H66.59v-20.915H-5.989zm74.015-44.263h89.009v-46.136H252.2v-82.608c0-.321-.021-.638-.024-.959H68.05c-.003.321-.024.638-.024.959zm120.635 1.036h70.47v-20.916h-70.47zm-100.035 43.227h72.579v-20.915h-72.58zm100.035 0h72.579v-20.915h-72.579zm31.78-262.21c29.347 18.85 48.787 51.758 48.787 89.203v82.608h16.411a25.05 25.05 0 0 1-.086-1.993v-169.818zm62.834 262.21h72.58v-20.915h-72.58zm0-43.227h72.58v-20.916h-72.58zm87.868-129.78c0-37.445 19.44-70.352 48.785-89.203h-65.851v169.818c0 .671-.034 1.335-.086 1.993h17.152zm17.028 145.854c17.504-9.495 50.238-15.886 87.733-15.886 4.653 0 9.23.101 13.717.29v-18.32c0-15.553 35.656-28.492 82.734-31.223v-80.715c0-.321-.022-.638-.025-.959H388.196c-.003.321-.024.638-.024.959zm87.729 24.86c-4.635 0-8.395-3.754-8.395-8.386 0-4.631 3.76-8.386 8.395-8.386h61.103c-.513-.136-1.028-.274-1.56-.409-16.616-4.227-37.763-6.554-59.543-6.554s-42.927 2.327-59.543 6.554c-11.152 2.836-17.942 5.917-21.696 8.188 3.754 2.272 10.544 5.352 21.696 8.189 16.616 4.227 37.762 6.553 59.543 6.553 20.354 0 40.15-2.033 56.218-5.748zm114.976-44.025c20.353 0 40.15-2.035 56.218-5.751h-56.218c-4.636 0-8.395-3.756-8.395-8.39 0-4.632 3.76-8.389 8.395-8.389h61.1c-.512-.136-1.026-.273-1.559-.409-16.615-4.227-37.76-6.556-59.541-6.556-21.782 0-42.927 2.33-59.542 6.556-11.152 2.838-17.943 5.919-21.698 8.193 3.755 2.27 10.546 5.352 21.698 8.19 16.615 4.227 37.76 6.556 59.542 6.556zm111.74 44.026c-4.636 0-8.394-3.755-8.394-8.387 0-4.631 3.758-8.386 8.394-8.386h61.103c-.514-.136-1.028-.274-1.56-.409-16.617-4.227-37.762-6.554-59.543-6.554-21.78 0-42.926 2.327-59.542 6.554-11.152 2.836-17.942 5.917-21.697 8.188 3.755 2.272 10.545 5.352 21.697 8.189 16.616 4.227 37.762 6.553 59.542 6.553 20.354 0 40.152-2.033 56.217-5.748z"/></defs><g><g transform="translate(731 -4503)"><use fill="#114c97" xlink:href="#9c49a"/></g><g clip-path="url(#clip-5947B181-61CD-320C-C1AA-833FC7F8A43B)" transform="translate(731 -4503)"><use fill="#fff" xlink:href="#9c49b"/></g></g></svg>