<svg xmlns="http://www.w3.org/2000/svg" xmlns:xlink="http://www.w3.org/1999/xlink" width="470" height="408" viewBox="0 0 470 408"><defs><path id="t0a9a" d="M1336.556 1397.499c-10.807 13.327-28.354 21.62-46.063 21.499-17.698.155-35.274-8.15-46.075-21.477a53.74 53.74 0 0 1-10.365-19.603 53.931 53.931 0 0 1-10.352 19.581c-10.806 13.321-28.36 21.62-46.063 21.499-17.692.155-35.274-8.15-46.08-21.477a53.844 53.844 0 0 1-10.376-19.632 53.933 53.933 0 0 1-10.364 19.61c-10.933 13.321-28.073 21.62-46.333 21.493-17.14.165-35.107-8.15-45.792-21.466a53.91 53.91 0 0 1-10.375-19.633 53.922 53.922 0 0 1-10.36 19.606c-10.812 13.321-28.36 21.62-46.063 21.499-17.697.155-35.268-8.15-46.08-21.477-10.96-13.15-15.146-31.244-10.347-46.101 9.122 29.448 32.65 45.422 56.427 45.35 23.793.117 47.389-15.89 56.438-45.35.002.002.002.006.003.01.002-.004.002-.008.004-.01 4.66 14.757 12.66 26.05 22.705 33.736 10.16 7.713 21.551 11.593 34.008 11.62 11.342 0 23.562-3.885 33.468-11.598 10.05-7.68 18.045-19.001 22.673-33.758 9.116 29.454 32.661 45.422 56.427 45.35 23.804.117 47.378-15.89 56.46-45.35 9.117 29.454 32.635 45.422 56.428 45.35 23.777.117 47.376-15.89 56.422-45.35 4.765 14.851.58 32.929-10.375 46.08zM1356 1133.542v12.528h-9.04l.33 161.106-.36-1.112c-9.045 29.46-32.644 45.466-56.421 45.35a53.631 53.631 0 0 1-14.938-2.094v-75.765h-40.162v36.394a79.076 79.076 0 0 1-1.328-3.885c-9.082 29.46-32.656 45.466-56.46 45.35-23.766.073-47.31-15.896-56.427-45.35-4.482 14.292-12.128 25.35-21.735 33.01v-82.67h-21.065v84.435h18.76c-9.65 7.032-21.273 10.58-32.1 10.58-12.458-.027-23.849-3.906-34.009-11.619-10.045-7.685-18.046-18.98-22.705-33.736l-.004.01c0-.004 0-.007-.003-.01-4.438 14.45-12.38 25.653-22.125 33.314v-10.724H952.85v22.745c-.318.004-.636.017-.954.015a53.028 53.028 0 0 1-1.793-.032v-22.728h-33.36v10.001c-8.145-6.661-14.97-15.85-19.46-27.394v-85.48h-5.214l-6.068-7.284v-1.221c.869-.735 122.527-93.751 123.433-94.444v-90.572h-4.034v-.147h-.834V1011h197.777zm-439.257 192.312h33.359v-30.458h-33.359zm0-33.247h33.359v-28.99h-33.359zm36.106 33.247h33.36v-30.458h-33.36zm0-33.247h33.36v-28.99h-33.36zm104.415-216.793h41.165v-24.931h-41.165zm-3.28 265.034h21.068v-84.444h-21.067zm0-98.23h21.068v-33.943h-21.067zm3.28-135.655h41.165v-28.44h-41.165zm21.13 135.655h21.065v-33.943h-21.066zm24.477-135.655h41.164v-28.44h-41.164zm0-31.15h41.164v-24.93h-41.164zm97.944 61.241h-50.572v66.672h50.572v-31.39h-50.47v-2.79h50.47zm2.738 66.662h50.145v-31.386h-50.145zm0-34.175h50.145v-32.486h-50.145zm52.883 34.175h47.38v-31.386h-47.38zm0-34.175h47.38v-32.486h-47.38z"/></defs><g><g clip-path="url(#clip-FE270A11-D28A-74F1-6F47-EA48ABD9020F)" transform="translate(-886 -1011)"><use fill="#1975e6" xlink:href="#t0a9a"/></g></g></svg>