<svg xmlns="http://www.w3.org/2000/svg" xmlns:xlink="http://www.w3.org/1999/xlink" width="301" height="302" viewBox="0 0 301 302"><defs><path id="z93ya" d="M140 2566h301v302H140z"/><path id="z93yc" d="M256.868 2692c-2.687 0-4.868-2.171-4.868-4.846v-19.385c0-2.675 2.181-4.846 4.868-4.846h4.869V2629c.034-29.426 23.991-53.274 53.552-53.308h24.343v-4.846c0-2.675 2.176-4.846 4.868-4.846h48.684c2.692 0 4.869 2.171 4.869 4.846v4.846H437v9.693h-19.474v38.769H437v9.692h-38.947v4.846c0 2.675-2.177 4.846-4.869 4.846H344.5c-2.692 0-4.868-2.17-4.868-4.846v-4.846h-19.474v29.077h4.868c2.693 0 4.869 2.171 4.869 4.846v19.385c0 2.675-2.176 4.846-4.869 4.846zm92.5-58.144h38.948v-58.164h-38.948zm-19.473-9.702h9.737v-38.77h-9.737zm-58.421 19.394h38.955v-9.694c0-5.35 4.358-9.693 9.739-9.693v-38.776h-4.87c-24.19.029-43.8 19.543-43.824 43.622zm0 19.375h38.947v-9.692h-38.947zm-9.737 19.385h58.42v-9.693h-58.42z"/><path id="z93yd" d="M348.974 2830.315a63.397 63.397 0 0 1-32.245 32.223c-32.02 14.194-69.493-.23-83.703-32.223l-4.098 4.095a14.552 14.552 0 0 1-10.366 4.29h-1.67a14.552 14.552 0 0 1-10.366-4.29l-4.045-4.041a4.885 4.885 0 0 0-3.458-1.43h-1.671c-1.3 0-2.54.512-3.459 1.43l-4.044 4.041a14.552 14.552 0 0 1-10.366 4.29h-1.67a14.552 14.552 0 0 1-10.366-4.29l-4.045-4.041a4.885 4.885 0 0 0-3.458-1.43h-1.671c-1.3 0-2.54.512-3.459 1.43l-6.907 6.901-6.907-6.901 6.907-6.902a14.572 14.572 0 0 1 10.366-4.29h1.67a14.572 14.572 0 0 1 10.366 4.29l4.045 4.042a4.885 4.885 0 0 0 3.458 1.43h1.671c1.3 0 2.54-.513 3.459-1.43l4.044-4.042a14.572 14.572 0 0 1 10.366-4.29h1.67a14.572 14.572 0 0 1 10.366 4.29l4.045 4.042a4.885 4.885 0 0 0 3.458 1.43h1.671c1.3 0 2.54-.513 3.459-1.43l6.907-6.902c.19-.146.396-.288.606-.405a63.27 63.27 0 0 1-2.037-15.667v-.933a68.268 68.268 0 0 1 16.466-44.459l43.33-50.516a5.038 5.038 0 0 1 7.415 0l43.329 50.516a68.293 68.293 0 0 1 16.466 44.46v.932a63.502 63.502 0 0 1-2.037 15.667c.21.117.416.259.606.405l6.907 6.902a4.885 4.885 0 0 0 3.459 1.43h1.67c1.3 0 2.54-.513 3.459-1.43l4.045-4.042a14.572 14.572 0 0 1 10.365-4.29h1.671a14.572 14.572 0 0 1 10.366 4.29l4.044 4.042a4.885 4.885 0 0 0 3.459 1.43h1.67c1.3 0 2.54-.513 3.459-1.43l4.045-4.042a14.572 14.572 0 0 1 10.365-4.29h1.671a14.572 14.572 0 0 1 10.366 4.29l6.907 6.902-6.907 6.901-6.907-6.901a4.885 4.885 0 0 0-3.459-1.43h-1.67c-1.3 0-2.54.512-3.46 1.43l-4.044 4.041a14.544 14.544 0 0 1-10.365 4.29h-1.671a14.544 14.544 0 0 1-10.366-4.29l-4.044-4.041a4.885 4.885 0 0 0-3.459-1.43h-1.67c-1.3 0-2.54.512-3.46 1.43l-4.044 4.041a14.544 14.544 0 0 1-10.365 4.29h-1.671a14.544 14.544 0 0 1-10.366-4.29zm-38.434-71.728l8.338 8.331a4.857 4.857 0 0 1 1.431 3.451v7.741l6.907 6.901h5.726l6.247-6.242a58.474 58.474 0 0 0-8.568-13.28l-20.081-23.429zm-59.161 6.901a58.489 58.489 0 0 0-10.014 16.717l7.693 7.687h5.725l8.339-8.331a4.874 4.874 0 0 1 3.454-1.43h7.747l6.907-6.902v-10.6l-8.338-8.332a4.857 4.857 0 0 1-1.432-3.451v-8.786zm-12.032 53.69a53.835 53.835 0 0 0 20.878 29.284l11.235-7.492v-10.01l-2.022-2.021h-7.747a4.874 4.874 0 0 1-3.454-1.43l-8.338-8.332zm105.377-15.582a58.636 58.636 0 0 0-1.92-14.65l-4.396 4.392a4.865 4.865 0 0 1-3.453 1.43h-9.769c-1.3 0-2.54-.513-3.453-1.43l-9.77-9.761a4.857 4.857 0 0 1-1.43-3.45v-7.741l-8.338-8.331a4.857 4.857 0 0 1-1.431-3.45v-29.283h.547l-10.316-12.026-10.316 12.026h.547v17.501l8.338 8.33a4.857 4.857 0 0 1 1.431 3.451v14.642a4.857 4.857 0 0 1-1.431 3.45l-9.769 9.761a4.874 4.874 0 0 1-3.453 1.43h-7.747l-8.338 8.331a4.874 4.874 0 0 1-3.453 1.43h-9.769a4.89 4.89 0 0 1-3.478-1.43l-5.314-5.31a58.128 58.128 0 0 0-.977 10.688v.933c0 1.65.103 3.27.25 4.88h14.404c1.294 0 2.54.512 3.453 1.43l8.338 8.33h7.746c1.295 0 2.54.513 3.454 1.43l4.884 4.881a4.857 4.857 0 0 1 1.431 3.45v14.642a4.875 4.875 0 0 1-2.188 4.06l-9.28 6.19a53.407 53.407 0 0 0 21.237 4.392c29.658-.035 53.694-24.051 53.729-53.685z"/><path id="z93ye" d="M222.162 2857.108a4.98 4.98 0 0 1-3.465 1.392h-1.674a4.997 4.997 0 0 1-3.464-1.392l-4.052-3.933c-2.745-2.683-6.488-4.184-10.383-4.175h-1.674c-3.895-.01-7.634 1.492-10.384 4.175l-4.051 3.933a4.989 4.989 0 0 1-3.465 1.392h-1.674a4.998 4.998 0 0 1-3.464-1.392l-4.052-3.933c-2.745-2.683-6.488-4.184-10.383-4.175h-1.674c-3.895-.01-7.634 1.492-10.384 4.175l-6.919 6.717 6.92 6.716 6.918-6.716a4.976 4.976 0 0 1 3.465-1.392h1.674c1.301 0 2.544.499 3.464 1.392l4.052 3.933c2.75 2.683 6.488 4.19 10.383 4.175h1.674c3.895.014 7.639-1.492 10.384-4.175l4.051-3.933a4.977 4.977 0 0 1 3.465-1.392h1.674a4.96 4.96 0 0 1 3.464 1.392l4.052 3.933c2.75 2.683 6.488 4.19 10.383 4.175h1.674c3.895.014 7.639-1.492 10.384-4.175l6.919-6.717-6.92-6.716z"/><path id="z93yf" d="M291 2839.222V2849c24.293-.03 43.97-19.707 44-44h-9.778c-.02 18.89-15.331 34.203-34.222 34.222"/><path id="z93yg" d="M423.697 2849h-1.674c-3.895-.01-7.633 1.492-10.383 4.175l-4.052 3.933a4.96 4.96 0 0 1-3.464 1.392h-1.674a4.976 4.976 0 0 1-3.465-1.392l-4.051-3.933c-2.745-2.683-6.489-4.184-10.384-4.175h-1.674c-3.895-.01-7.633 1.492-10.383 4.175l-4.052 3.933a4.96 4.96 0 0 1-3.464 1.392h-1.674a4.976 4.976 0 0 1-3.465-1.392l-6.919-6.716-6.919 6.716 6.92 6.717c2.75 2.683 6.483 4.19 10.383 4.175h1.674c3.9.014 7.638-1.492 10.383-4.175l4.052-3.933a4.977 4.977 0 0 1 3.464-1.392h1.674a4.96 4.96 0 0 1 3.465 1.392l4.051 3.933c2.75 2.683 6.484 4.19 10.384 4.175h1.674c3.9.014 7.638-1.492 10.383-4.175l4.052-3.933a4.976 4.976 0 0 1 3.464-1.392h1.674a4.96 4.96 0 0 1 3.465 1.392l6.919 6.716 6.919-6.716-6.92-6.717c-2.744-2.683-6.488-4.184-10.383-4.175"/><path id="z93yh" d="M385.257 2684.155a4.93 4.93 0 0 0-.7.696l-20.7 27.443a49.149 49.149 0 0 0-9.857 29.403c0 18.945 15.446 34.303 34.5 34.303 19.054 0 34.5-15.358 34.5-34.303a49.149 49.149 0 0 0-9.857-29.403l-20.7-27.443c-1.79-2.166-5.012-2.475-7.186-.696m27.876 57.542c0 13.535-11.028 24.502-24.638 24.502-13.61 0-24.638-10.967-24.638-24.502a39.341 39.341 0 0 1 7.884-23.523l16.754-22.213 16.754 22.213a39.341 39.341 0 0 1 7.884 23.523"/><path id="z93yi" d="M389 2757c8.285 0 15-6.715 15-15h-10c0 2.765-2.235 5-5 5z"/><path id="z93yj" d="M141.426 2652.141a4.86 4.86 0 0 1 0-6.879l4.032-4.028a24.173 24.173 0 0 1 17.193-7.127h3.336a24.18 24.18 0 0 1 17.193 7.127l5.456 5.458v-32.53c-11.312-2.33-19.439-12.284-19.454-23.838v-9.73a4.866 4.866 0 0 1 4.864-4.864 24.148 24.148 0 0 1 16.152 6.275A24.281 24.281 0 0 1 212.954 2566a4.866 4.866 0 0 1 4.864 4.865v9.73c-.015 11.553-8.142 21.507-19.454 23.837v17.932l5.456-5.454a24.173 24.173 0 0 1 17.193-7.127h3.336a24.181 24.181 0 0 1 17.193 7.127l4.032 4.028a4.86 4.86 0 0 1 0 6.879l-13.76 13.758a24.14 24.14 0 0 1-17.192 7.127h-3.336a24.091 24.091 0 0 1-12.922-3.775V2686h-9.728v-16.75a24.091 24.091 0 0 1-12.922 3.776h-3.336a24.132 24.132 0 0 1-17.193-7.127zm58.956-18.034l.588.589a14.67 14.67 0 0 0 10.316 4.276h3.336a14.678 14.678 0 0 0 10.316-4.276l10.315-10.318-.588-.59a14.678 14.678 0 0 0-10.316-4.275h-3.336a14.67 14.67 0 0 0-10.316 4.276zm-2.018-39.75a14.623 14.623 0 0 0 9.727-13.763v-4.033a14.616 14.616 0 0 0-9.727 13.763zm-19.455-4.033a14.616 14.616 0 0 0 9.727 13.763v-4.033a14.623 14.623 0 0 0-9.727-13.763zm-27.162 58.378l10.315 10.318a14.67 14.67 0 0 0 10.316 4.276h3.336a14.678 14.678 0 0 0 10.316-4.276l.588-.589-10.315-10.318a14.678 14.678 0 0 0-10.316-4.276h-3.336a14.67 14.67 0 0 0-10.316 4.276z"/><path id="z93yk" d="M189 2742h-10c0 8.285 6.715 15 15 15s15-6.715 15-15h-10c0 2.765-2.24 5-5 5s-5-2.235-5-5"/><path id="z93yl" d="M188.571 2686l-19.714 25.89c-6.377 8.413-9.832 18.627-9.857 29.128 0 18.768 15.446 33.982 34.5 33.982 19.054 0 34.5-15.214 34.5-33.982-.025-10.501-3.48-20.715-9.857-29.128L198.429 2686zm21.678 31.715c5.1 6.734 7.864 14.9 7.884 23.303 0 13.408-11.033 24.273-24.638 24.273-13.605 0-24.638-10.865-24.638-24.273.02-8.404 2.784-16.57 7.884-23.303l16.754-22.006z"/><clipPath id="z93yb"><use xlink:href="#z93ya"/></clipPath></defs><g><g transform="translate(-140 -2566)"><g/><g clip-path="url(#z93yb)"><use fill="#114c97" xlink:href="#z93yc"/></g><g clip-path="url(#z93yb)"><use fill="#114c97" xlink:href="#z93yd"/></g><g clip-path="url(#z93yb)"><use fill="#114c97" xlink:href="#z93ye"/></g><g clip-path="url(#z93yb)"><use fill="#114c97" xlink:href="#z93yf"/></g><g clip-path="url(#z93yb)"><use fill="#114c97" xlink:href="#z93yg"/></g><g clip-path="url(#z93yb)"><use fill="#114c97" xlink:href="#z93yh"/></g><g clip-path="url(#z93yb)"><use fill="#114c97" xlink:href="#z93yi"/></g><g clip-path="url(#z93yb)"><use fill="#7fbd42" xlink:href="#z93yj"/></g><g clip-path="url(#z93yb)"><use fill="#114c97" xlink:href="#z93yk"/></g><g clip-path="url(#z93yb)"><use fill="#114c97" xlink:href="#z93yl"/></g></g></g></svg>