<svg xmlns="http://www.w3.org/2000/svg" xmlns:xlink="http://www.w3.org/1999/xlink" width="153" height="87" viewBox="0 0 153 87"><defs><path id="49qea" d="M111 101V86.351h4.085v1.553c1.72-.976 3.359-1.611 4.915-1.904v3.955c-1.659.332-3.082.673-4.27 1.025l-.614.206V101H111"/><path id="49qeb" d="M125.723 96.77c.464.418 1.13.627 1.999.627a58.98 58.98 0 0 0 4.916-.183l.829-.091.06 3.022c-2.271.57-4.324.855-6.16.855-2.231 0-3.85-.61-4.857-1.832-1.006-1.222-1.51-3.206-1.51-5.954 0-5.476 2.181-8.214 6.545-8.214 4.303 0 6.455 2.3 6.455 6.9l-.296 2.84h-8.706c.02.937.261 1.614.725 2.03zm4.368-5.144c0-1.221-.187-2.071-.562-2.55-.376-.477-1.032-.717-1.97-.717-.937 0-1.599.25-1.984.747-.385.5-.587 1.34-.607 2.52z"/><path id="49qec" d="M147.521 89.16c-2.474-.326-4.205-.489-5.192-.489-.987 0-1.626.092-1.915.275-.29.184-.434.475-.434.872 0 .398.195.674.584.826.389.153 1.386.378 2.992.673 1.606.296 2.748.78 3.427 1.453.678.674 1.017 1.764 1.017 3.274 0 3.304-2.005 4.956-6.015 4.956-1.316 0-2.913-.183-4.788-.55l-.957-.184.119-3.427c2.474.327 4.195.49 5.162.49.968 0 1.626-.096 1.975-.29.349-.194.524-.485.524-.873 0-.387-.185-.673-.554-.857-.37-.183-1.327-.407-2.872-.672-1.547-.265-2.699-.714-3.457-1.346-.758-.632-1.137-1.76-1.137-3.381 0-1.621.539-2.845 1.616-3.67 1.077-.827 2.464-1.24 4.16-1.24 1.176 0 2.783.194 4.818.581l.987.184-.06 3.396"/><path id="49qed" d="M151 84.08h4V80h-4zm0 16.92h4V86h-4z"/><path id="49qee" d="M158 101h4V80h-4z"/><path id="49qef" d="M166 84.08h4V80h-4zm0 16.92h4V86h-4z"/><path id="49qeg" d="M177.723 96.77c.464.418 1.13.627 2 .627 1.835 0 3.474-.061 4.915-.183l.829-.091.06 3.022c-2.271.57-4.324.855-6.16.855-2.231 0-3.85-.61-4.857-1.832-1.007-1.222-1.51-3.206-1.51-5.954 0-5.476 2.181-8.214 6.544-8.214 4.304 0 6.456 2.3 6.456 6.9l-.296 2.84h-8.706c.019.937.261 1.614.725 2.03zm4.369-5.144c0-1.221-.189-2.071-.564-2.55-.374-.477-1.031-.717-1.969-.717-.938 0-1.599.25-1.984.747-.385.5-.588 1.34-.607 2.52z"/><path id="49qeh" d="M193.014 101H189V86.351h3.984v.82c1.357-.78 2.606-1.171 3.744-1.171 1.997 0 3.375.576 4.134 1.728.758 1.153 1.138 2.93 1.138 5.332V101h-4.014v-7.823c0-1.25-.15-2.172-.449-2.768-.3-.596-.899-.893-1.797-.893-.82 0-1.608.136-2.367.41l-.36.116V101"/><path id="49qei" d="M211.256 85c1.028 0 2.342.163 3.943.488l.801.183-.119 3.237c-1.561-.162-2.718-.244-3.469-.244-1.364 0-2.268.3-2.713.9-.445.602-.667 1.736-.667 3.405 0 1.67.222 2.814.667 3.436.445.621 1.36.93 2.743.93l3.44-.243.118 3.267c-2.115.427-3.726.641-4.833.641-2.195 0-3.77-.636-4.73-1.908-.958-1.272-1.437-3.313-1.437-6.123 0-2.809.493-4.84 1.483-6.092.987-1.251 2.579-1.877 4.773-1.877"/><path id="49qej" d="M221.723 96.77c.464.418 1.13.627 2 .627 1.835 0 3.474-.061 4.915-.183l.829-.091.06 3.022c-2.271.57-4.324.855-6.16.855-2.231 0-3.85-.61-4.857-1.832-1.007-1.222-1.51-3.206-1.51-5.954 0-5.476 2.181-8.214 6.544-8.214 4.304 0 6.456 2.3 6.456 6.9l-.296 2.84h-8.706c.019.937.26 1.614.725 2.03zm4.368-5.144c0-1.221-.188-2.071-.563-2.55-.375-.477-1.031-.717-1.97-.717-.937 0-1.598.25-1.983.747-.385.5-.588 1.34-.607 2.52z"/><path id="49qek" d="M115.855 69.458h-2.694v4.067c0 1.065.075 1.762.226 2.092.15.33.505.494 1.065.494l1.483-.116.065.84c-.71.11-1.253.165-1.63.165-.817 0-1.384-.206-1.7-.617-.318-.413-.477-1.2-.477-2.364v-4.56H111v-.874h1.193V66h.968v2.585h2.694v.873"/><path id="49qel" d="M121.968 71.446v4.123c.043.38.387.606 1.032.677l-.048.739c-.814 0-1.412-.205-1.793-.616-.995.421-1.99.631-2.985.631-.708 0-1.248-.197-1.619-.592-.37-.395-.555-.959-.555-1.693 0-.733.187-1.276.563-1.63.376-.354.966-.572 1.77-.654l2.699-.262v-.723c0-.574-.13-.987-.39-1.238-.258-.252-.605-.377-1.039-.377-.677 0-1.556.061-2.635.184l-.492.047-.048-.739c1.164-.215 2.183-.323 3.056-.323.873 0 1.505.2 1.897.6.391.4.587 1.016.587 1.846zm-4.984 3.221c0 1.04.439 1.558 1.318 1.558.38 0 .798-.043 1.253-.13a8.025 8.025 0 0 0 1.08-.27l.397-.14v-2.793l-2.588.263c-.518.04-.891.185-1.119.432-.227.246-.34.607-.34 1.08z"/><path id="49qem" d="M125 81V69.163h.896v.62c.79-.521 1.623-.783 2.5-.783.875 0 1.528.332 1.958.996.43.664.646 1.745.646 3.24 0 1.497-.253 2.58-.76 3.25-.506.67-1.346 1.004-2.521 1.004-.628 0-1.236-.07-1.823-.213V81H125zm3.205-11.118c-.334 0-.693.06-1.078.18-.385.12-.684.244-.896.375l-.335.18v5.812c.689.13 1.286.196 1.793.196.87 0 1.483-.264 1.838-.792.354-.528.531-1.399.531-2.613 0-1.213-.154-2.073-.463-2.579-.31-.506-.773-.759-1.39-.759z"/><path id="49qen" d="M137 67.179h1V66h-1zM137 77h1v-7.857h-1z"/><path id="49qeo" d="M140.91 77H140v-7.843h.91v.58c.864-.49 1.702-.737 2.514-.737 1.028 0 1.715.277 2.06.832.344.554.516 1.568.516 3.042V77h-.925v-4.078c0-1.203-.114-2.016-.34-2.44-.226-.423-.71-.635-1.45-.635-.36 0-.738.055-1.133.165-.396.11-.702.222-.918.337l-.324.157V77"/><path id="49qep" d="M152.855 69.458h-2.694v4.067c0 1.065.075 1.762.226 2.092.15.33.505.494 1.065.494l1.483-.116.065.84c-.71.11-1.253.165-1.63.165-.816 0-1.384-.206-1.7-.617-.318-.413-.477-1.2-.477-2.364v-4.56H148v-.874h1.193V66h.968v2.585h2.694v.873"/><path id="49qeq" d="M154 72.985c0-1.447.264-2.472.794-3.077.529-.605 1.43-.908 2.706-.908 1.275 0 2.177.303 2.707.908.528.605.793 1.63.793 3.077 0 1.446-.243 2.477-.727 3.092-.484.615-1.406.923-2.765.923-1.359 0-2.283-.308-2.773-.923-.49-.615-.735-1.646-.735-3.092zm1.036-.028c0 1.213.153 2.053.458 2.519.306.466.973.699 2.001.699s1.698-.236 2.01-.707c.31-.47.466-1.308.466-2.511 0-1.204-.175-2.028-.526-2.473-.35-.446-.997-.668-1.942-.668s-1.592.22-1.942.66c-.35.44-.525 1.267-.525 2.48z"/><path id="49qer" d="M104.5 124c-10.201 0-18.5-8.662-18.5-19.309 0-4.26 1.322-8.313 3.823-11.721 1.662-2.276 3.394-4.355 5.07-6.367 3.404-4.086 6.616-7.94 8.514-12.603l3.862 1.714c-2.158 5.3-5.74 9.6-9.204 13.757-1.637 1.965-3.325 3.99-4.907 6.158a15.208 15.208 0 0 0-2.961 9.062c0 8.232 6.416 14.929 14.303 14.929 7.887 0 14.303-6.697 14.303-14.929v-.41H123v.41c0 10.647-8.299 19.309-18.5 19.309"/><path id="49qes" d="M104.194 132C89.2 132 77 119.634 77 104.433c0-6.081 1.943-11.868 5.62-16.734 2.519-3.35 5.154-6.422 7.702-9.392 8.22-9.583 15.983-18.63 15.983-33.307h4.322c0 16.315-8.277 25.964-17.04 36.179-2.506 2.921-5.095 5.939-7.532 9.18-3.097 4.1-4.733 8.964-4.733 14.074 0 12.784 10.26 23.185 22.872 23.185 12.51 0 23.483-11.122 23.483-23.803H132C132 119.093 119.266 132 104.194 132"/><path id="49qet" d="M104.5 115c-5.238 0-9.5-4.582-9.5-10.215 0-2.255.679-4.4 1.963-6.202.772-1.09 1.569-2.075 2.34-3.028 1.706-2.11 3.31-4.092 4.013-6.555l3.916 1.295c-.96 3.355-2.927 5.788-4.83 8.14-.736.91-1.489 1.841-2.184 2.822a6.037 6.037 0 0 0-1.121 3.528c0 3.204 2.424 5.81 5.403 5.81 2.98 0 5.404-2.606 5.404-5.81H114c0 5.633-4.262 10.215-9.5 10.215"/></defs><g><g transform="translate(-77 -45)"><g><use fill="#78b642" xlink:href="#49qea"/></g><g><use fill="#78b642" xlink:href="#49qeb"/></g><g><use fill="#78b642" xlink:href="#49qec"/></g><g><use fill="#78b642" xlink:href="#49qed"/></g><g><use fill="#78b642" xlink:href="#49qee"/></g><g><use fill="#78b642" xlink:href="#49qef"/></g><g><use fill="#78b642" xlink:href="#49qeg"/></g><g><use fill="#78b642" xlink:href="#49qeh"/></g><g><use fill="#78b642" xlink:href="#49qei"/></g><g><use fill="#78b642" xlink:href="#49qej"/></g><g><use fill="#2677b0" xlink:href="#49qek"/></g><g><use fill="#2677b0" xlink:href="#49qel"/></g><g><use fill="#2677b0" xlink:href="#49qem"/></g><g><use fill="#2677b0" xlink:href="#49qen"/></g><g><use fill="#2677b0" xlink:href="#49qeo"/></g><g><use fill="#2677b0" xlink:href="#49qep"/></g><g><use fill="#2677b0" xlink:href="#49qeq"/></g><g><use fill="#2677b0" xlink:href="#49qer"/></g><g><use fill="#1e4280" xlink:href="#49qes"/></g><g><use fill="#78b642" xlink:href="#49qet"/></g><g><use fill="#78b642" xlink:href="#49qea"/></g><g><use fill="#78b642" xlink:href="#49qeb"/></g><g><use fill="#78b642" xlink:href="#49qec"/></g><g><use fill="#78b642" xlink:href="#49qed"/></g><g><use fill="#78b642" xlink:href="#49qee"/></g><g><use fill="#78b642" xlink:href="#49qef"/></g><g><use fill="#78b642" xlink:href="#49qeg"/></g><g><use fill="#78b642" xlink:href="#49qeh"/></g><g><use fill="#78b642" xlink:href="#49qei"/></g><g><use fill="#78b642" xlink:href="#49qej"/></g><g><use fill="#2677b0" xlink:href="#49qek"/></g><g><use fill="#2677b0" xlink:href="#49qel"/></g><g><use fill="#2677b0" xlink:href="#49qem"/></g><g><use fill="#2677b0" xlink:href="#49qen"/></g><g><use fill="#2677b0" xlink:href="#49qeo"/></g><g><use fill="#2677b0" xlink:href="#49qep"/></g><g><use fill="#2677b0" xlink:href="#49qeq"/></g><g><use fill="#2677b0" xlink:href="#49qer"/></g><g><use fill="#1e4280" xlink:href="#49qes"/></g><g><use fill="#78b642" xlink:href="#49qet"/></g></g></g></svg>