<svg xmlns="http://www.w3.org/2000/svg" xmlns:xlink="http://www.w3.org/1999/xlink" width="582" height="361" viewBox="0 0 582 361"><defs><path id="7240a" d="M730.349 1083.856c.285.437 1.63 1.054 1.388 1.951-.155.576-.645.718-.938 1.126l-.3.562c-.18.15-.456.196-.564.413-.5 1.016-.885 2.605-2.4 2.551a21.917 21.917 0 0 0-1.463 1.989c-.124.19-.106.449-.263.6l-.414.113-.337.487-.9.45c-.16.144-.314.407-.525.488-.427.164-1.014-.112-1.014-.112-.111.035-.166.06-.225.15.1.01.025-.043.112.037.32.956.274 2.394-.562 2.964-.304.208-.837.528-1.314.263-.365-.12-.661-.387-.674-.863.324-.336.158-.795.3-1.35l.299-.639h-.074a4.615 4.615 0 0 1-.751.413l.075.075a.766.766 0 0 0-.487.15c.022.071.03.108-.188.113v.112c.1.008.05-.01.113.113-.117.062-.072.008-.113.15.11.14-.073.055 0 .263.334.947.645 2.018-.301 2.813-.188.16-.193.375-.524.413-.18-.095-.69.112-.863.15v.113c-.091-.091-.142.003-.188.075l-.15.262h.187c.333 1.494.765 1.574-.262 2.777-.16.186-.47.612-.938.45-1.148-.399-1.188-2.034-.6-3.002.154-.254.692-.634.75-.75.094-.28-.273-.739-.339-1.013-.071-.305-.023-.642-.074-.938-.572-.105-.57-.652-1.05-.788-.041.129-.07.181-.075.375-.18.479.199 1.317.224 1.914l-.412 1.388c-.073.56.639 1.164.338 1.726-.306.805-1.625 1.732-2.514 1.988-.117.798-1.045 2.079-1.576 2.476-.136.102-.316.028-.489.113-.238.117-.4.407-.6.563-.159.125-.425.066-.6.187l-.225.375-.376.113c-.605.293-.921.754-1.876.75l-.524-.3c-.139.32-.547.685-.75.976-.156.22-.064.423-.151.637-.205.505.851 1.843-.037 2.477l.075.075c-.272.06-.228.168-.376.337-.688.79-.497 1.404-.45 2.476.015.34-.273.93-.338 1.426l.263 1.05c-.017.125-.106.452-.075.713l.038.488c-.146.407-.556.86-.713 1.276-.114.298-.13.683-.3.975-.15.254-.115 1.144-.226 1.538.22.691.533 1.22.825 1.989.133.35-.043.67.15.975.238.375.665.847.713 1.35l-.412 1.014c-.163.34-.44.523-.601.863-.194.41-.05.808-.074 1.238.117-.023.089-.011.224.075-.012.025-.024.05-.038.075.32.058.198.15.376.225.205.085.532-.05.638-.075.512-.123 1.068.073 1.389.263.868.514 1.094 1.752 1.613 2.626.324.545 1.031.891 1.426 1.388l.413.9c.011-.025.025-.05.037-.075.022.19.041.203.188.263.237.16.777-.068 1.125 0 1.09.213 1.651.383 2.702-.113-.005-.763.186-2.208-.788-2.25-.261-.126-.399.071-.751 0-.261-.054-.461-.194-.75-.263-.493-.789.287-2.16 1.088-2.251.066-.031 1.365.185 1.5.262.444.252.327.8.639 1.126.427.446 1.06.793 1.426 1.313.16.228.194.567.375.788.078.095.18.117.225.262.176.566.094 2.49-.3 2.74-.183.146-.62.549-.9.674l-.788.15c-.033.099.025.042-.076.076-.266-.067-1.053.742-1.389.9l-.938.375c-.283.184-.533.485-.824.675l-.376.113c-.141.148-.592.972-.676 1.238-.011.175-.024.35-.037.525-.221.514-1.096.742-1.538 1.05v-.224c-.523.007-.599.098-1.163.075-.097-.168-.174-.265-.188-.526-.078-.137.135-.572.188-.6.24-.25.804-.337.938-.675.213-.298.232-.82.263-1.126-.136-.053-.1.042-.15-.112h.037l-.075-.075-.188-.075a.8.8 0 0 1-.038.037c.041.056.04.038.075.113a.795.795 0 0 1-.037.037l-.412-.112c-.112.157-.366.26-.45.225-.013.215-.053.197-.114.338-.15.026-.122.08-.113.337-.219.16-.077.708-.149 1.013-.057.244-.34.73-.6.938-.697.56-1.847 1.118-2.815 1.576l-.487.075c-.323.187-.692.32-1.013.525-.9.579-1.35 1.792-2.327 2.364-.223.131-.559.246-.787.337a208.66 208.66 0 0 1-.338-.037c-.126.044-.333.318-.525.413l-1.164.3c-.734.256-1.432.836-2.176 1.163l-1.2.3c-.38.18-.708.483-1.126.638-.317.117-.968.129-1.164.225-.38.187-.741.684-1.162.825l-1.54.338c-.47-.121-.632-.388-1.2-.188v.075c-.733.681-1.55 1.594-2.363 2.326-.239.215-.623.84-.863 1.013-.426.309-.998.589-1.39.788-.111.058-.454.264-.486.225-.266.318-.586.347-.826.6-.168.178-.246.383-.451.526.056.482-.127 1.121-.224 1.463h.149l.113-.038c.413-.279 1.073-.748 1.351-1.163.166-.248.239-.63.487-.787.65-.412 1.073.195 1.614.112l.488-.263c.204-.045.307.083.413.113.3-.105.52-.34.863-.413l1.013.113c.86-1.102 2.286-.555 3.377-1.276.376-.248.562-.79.863-1.125.33-.369.835-.697 1.088-1.126.103-.172.102-.37.225-.525l1.088-.825c1.022-.022 3.17.792 2.627 2.138-.258.64-.623.875-1.163 1.238l-.376.563c-.211.23-.486.46-.713.675-.484.459-1.222.565-1.838.9-.53.29-.938 1.63-1.426 2.102l-.751.375-.112.225c-.128.104-.247.064-.413.15-.302.158-.482.481-.713.713-.146.147-1.431.646-1.688.75-.442.179-1.021.008-1.5.3-.246.15-.476.445-.751.563l-1.24.188c-.44.169-.692.64-1.124.825-.54.23-1.443.283-1.989.375l-.3-.037c-.642.176-.938.409-1.763.412-.018.104.005.062-.188.075l-.45.113c-.055.26-.506.92-.188 1.05.314-.079 1.548.01 1.876.263.212.262.387.713.375 1.088l-.038.525c.11.528.407 1.28.526 1.726.013.65.024 1.3.038 1.951.119.68.477 1.024.6 1.763.054.328-.073 1.453-.188 1.614.332.74-.383 2.597-.562 3.489-.023.11.099.106.075.262l-.338 1.313c-.054.098-.235.225-.3.338-.181.312-.355.836-.638 1.163-.19.219-.517.434-.676.675-.386.59-.077 1.492-.45 2.064-.264.405-.6.771-.901 1.163l-.3.225c-.34.615.074.843-.037 1.463-.05.276.162.79.075 1.426-.128.924-.183 1.46-1.276 1.913-.282.118-.718.209-1.088.075-.27-.097-.713.053-.975-.075-.257-.092-.331-.264-.488-.45-.018-.799.16-1.732.374-2.476-.124-.054-.125-.078-.187-.188-.573.042-.742-.312-1.125-.525-.269-.15-.64-.243-.9-.338-.342.4-1.193.387-1.54.263-.057.185-.125.21-.224.3.067.111.056.29.037.45.342.114.25.41.45.713.543.826.967 1.84 1.5 2.851l-.074.038c.419.11 1.171.672 1.276.975l-.075.038h.075c.19.202.466.263.675.45.175.157.93 1.305 1.013 1.5.16.374.027.446.15.751.133.33.629.762.788 1.2.075.204-.002.396-.038.488.095.344.152.78.151 1.314 0 0 .236.538.225.675-.069.851-.122 2.182-.45 2.739.12.041.047-.011.112.075-.378.518.13 1.253-.038 1.726-.078.225-.284.519-.374.75v.262c-.057.122-.24.14-.3.3-.373.73-.45 1.769-.863 2.59-.327.649-.777 1.188-.976 1.838-.195.637.044 1.184-.263 1.725.013.15.026.3.037.45-.328.968-.679 2.132-.262 3.34-.11.309-.198.51-.3.75-.012.175-.026.35-.037.525-.135.373-.489.84-.6 1.126v.563c-.127.397-.103.71-.226 1.163-.395.194-.95.399-1.389.412-.26-.385-.723-.564-.9-1.05l-.075-.713c-.07-.19-.262-.453-.337-.638-.127-.312-.019-.694-.075-.975-.067-.335-.316-.788-.225-1.238.067-.334.299-.455.375-.75.145-.568-.25-.924-.113-1.426.178-.652.404-1.49.563-2.176l.037-.6c.18-.493.566-1.181.713-1.689.095-.325-.147-.736-.225-.938-.295-.764-.67-1.151-.863-2.063-.804-.38-1.226-.937-1.538-1.689-.415.016-.672-.164-1.127-.375l-.075.15c-.325-.185-.54.099-.9.15-.293.043-1.294-.001-1.65.113-.293-.084-.37-.404-.6-.525l-.338-.075c-.149-.116-.18-.38-.338-.488l-.037.037c.016.13.055.162-.076.226-.025.011-.011-.009-.037.037-.023.1.046.381-.075.563l.112.037-.075.225-.037-.075v.113c.275.238.717 1.043.863 1.313-.046.091-.013.433-.075.563-.104.22-.293.328-.339.638h-.224c-.032.214-.288.177-.3.562l.037.188.113-.038c.012.196.234.618.3.638.22.073.734-.025 1.088.188 1.457.873 1.335 2.077 1.989 3.639.207.497-.244 1.069-.113 1.538.1.36.397.508.563.788.38.641.854 1.792.413 2.551-.192.33-.571.399-.9.6.12.042.046-.01.112.076-.048.041.367 1.531.413 1.688.382.066 1.058.387 1.2.713.104.238.09.47.225.675.196.298.418.326.413.863.139.244-.153.754-.187.863.003.047.016.17.075.262.01-.03.237.07.487.075.263-.156.512-.058.75-.15l.451-.375c.424-.222.861-.002 1.313.038.233.308.624.58.826.9.298.473.3 1.216.563 1.726.653 1.266 1.335 2.481 1.95 3.64.116.216-.006.36.038.6.072.387.169.803.338 1.125.173.326.996.883 1.313 1.125.346.265.365.856.637 1.201.107.135.396.204.489.338l.3.975c.37.83.938 1.706 1.538 2.326-.07.816-.075 1.587-.637 2.064.024.72.421 1.281.412 2.063-.334.32-.56 1.027-1.126 1.088l-.224.076c-.279.272-.24.783-.526 1.125-.283.339-.85.429-1.126.788-.185.24.016.473-.038.712-.043.196-1.043 1.272-1.237 1.388-.105.064-.361-.006-.601.076l-.225.225c-.096.058-1.194.275-1.463.338l-.713-.076c-.156.174-.032.177 0 .45h.113c-.096.518.11 1.471.037 1.876-.082.454-.425.707-.563 1.05-.15.372.005.605-.075.976.084.006.376.145.526.112.18-.038.7-.208.938-.15.397.1.698.599.975.714l.225-.038c.229-.342.577-.889.938-1.087.062-.027.125-.051.187-.075-.048-.022-.03-.028-.036-.039.265-.235 1.076-.493 1.275-.037.12.15.061.278.113.525.22 1.056-.04 1.302-.563 1.914v-.075l-.038.037c-.716.579-1.098 1.75-1.425 2.701-.299.168-.67.325-.9.563-.195.198-.279.494-.526.638-.453.262-1.647-.067-1.951-.225-.014.037-.025.075-.038.112-.71-.327-1.31.645-1.8 1.013-.369.277-.86.347-1.352.376a18.233 18.233 0 0 0-.037-.113l-.114.037c-.03.115-.025.079-.075.151-.111-.01-.035-.083-.111 0-.221.086-.74.194-1.05.375-.244.141-.428.57-.677.713-.4.228-.74.294-1.013.637-.26.33-.286.756-.525 1.127-.058.089-.204.074-.263.149-.407.522-.762 1.015-1.2 1.5-.354.394-1.397.816-1.463 1.464-.06.154.03.615-.038.863-.173.636-.745 1.319-.975 1.838v.374c-.159.564-.223 1.31-.338 1.839-.199.903-.8.833-.789 1.876-.434.366-.909.365-1.5.526l-.9-.038c-.211.104-.68.191-.901.225-.088-.024-.176-.05-.263-.075l-.076.15c-.239.149-.61.09-.824.15-.068.02-.817.389-.9.45-.407.299-.684.856-1.014 1.239-.192.224-.598.256-.825.45l-.075.225c-.271.258-.575.473-.826.751.137.284-.874 1.372-1.013 1.65l-.075.45c-.09.227-.35.45-.413.714-.035.15.074.443-.037.674-.285.599-.774 1.265-1.013 1.914-.115.31-.03.755-.188 1.088l-.338.412v.863c.047.608-.061 2.25-.3 2.665a2.099 2.099 0 0 0-.075-.038c-.205.708-2.033 1.43-2.514 2.213-.291.475-.347 1.094-.638 1.54-.119.18-.366.247-.487.411l-.338.564c-.088.036-.175.074-.263.111l-.076.263c-.188.287-.598.47-.787.75-.136.203-.205.401-.375.563-.157.15-.372.183-.563.3-.445.273-.86.849-1.201 1.238-.293.335-.314.889-.6 1.276a7.692 7.692 0 0 1-1.613 1.576l-.676.787c-.115.09-1.541.484-1.575.488-.083.384-.015.683-.114 1.014-.086.29-.217.375-.224.787-.499.315-1.64 1.822-1.951 2.439l-.113-.038c-.213.87-1.594.911-1.95 1.726-.102.23.166.508.187.825a5.2 5.2 0 0 1-.188 1.501c-.076.24-.464.862-.638 1.125-.126.087-.25.176-.375.263-.353.557-.462 1.109-.638 1.764-.156.576.699 1.237.413 2.175-.216.71-.831 1.193-1.164 1.764-.171.297-.042.735-.038.975l-.261.714.037.412c-.297.933-.277 1.79-.225 2.738.015.269-.162.87-.225 1.125-.09.364.054.569-.076.976-.11.345-.298.907-.412 1.277-.303.976.438 1.885.675 2.7.418 1.44.174 2.862.525 4.24.285 1.114 1.096 2.062 1.502 3.038.17.412.073.863.3 1.202.584.871 1.078 1.866 1.726 2.663.223.276.195.774.337 1.126.156.383.445.766.638 1.125l.337.9c.398.528.605 1.206.977 1.765.5.749 1.142 1.574 1.575 2.362.192.349.165.713.376 1.012.304.436.8.787 1.05 1.202.309.513.51 1.079.863 1.538.48.624 1.367.866 1.876 1.463.286.335.401.73.637 1.126.268.444.797.836 1.127 1.237.233.285.223.693.488.938l1.312.864c.22.169.345.497.564.675.16.132.34.155.45.337.32.542.434 1.774.075 2.29a78.8 78.8 0 0 0-.375.187c-.204.151-.473.884-.375 1.2.154.5.587.834.825 1.238.365.621.786 1.268 1.088 1.876l.188.712c.335.61 1.194.82 1.576 1.39.352.527.4 1.111.674 1.65l.714.9c.127.239.122.5.262.713l.526.563.224.975.451.526c.194.391.251.856.487 1.238.19.307.431.64.639.938l.075.3c.11.126.334.174.412.337.23.48.25 1.126.564 1.539.141.186.39.307.525.526.224.364.163.938.338 1.237.051.088.234.178.299.263.451.584.874 1.182 1.201 1.875.034.072.25 1.619.226 1.726-.04.174-.173.376-.113.676.16.806.458 1.502.6 2.288.136.754-.392 1.249-.225 1.989l.413 1.425v1.576l.15.563c-.026.162-.05.325-.075.488.007.629.038 1 .113 1.613l-.038.6c.165.788.327 1.556.225 2.326-.35.225-1.005.789-1.05 1.276-.17.329 0 2.1 0 2.1h.037l.075-.337.263-.188c.345-.006.535.105.675.3.672 1.038.335 3.282.15 4.39-.118.703-.795 2.688-1.2 3.264-.323.46-.912.801-1.277 1.238-.152.183-.164.431-.3.638-.163.112-.325.224-.487.338-.296.364-.55.86-.938 1.126l-.938.45c-.402.424-.645 1.005-1.05 1.426-.277.285-.665.422-.977.673-.137.113-.203.331-.375.414l-.375.075c-.19.102-.68.713-.863.9-.764.179-1.26.012-1.8-.562-.103-1.242 1.036-1.406 1.575-2.101.475-.614 1.36-1.606 2.026-1.989l.75-.187.413-.563c.277-.194.68-.326.863-.6.398-.59.732-1.138 1.201-1.65.166-.183.43-.275.6-.451.176-.182.804-1.444.826-1.727-.207-.015-.685.028-1.013 0-.191.258-.624.953-.976 1.014-.715.268-1.577.223-2.476.188-.28.435-.718.715-1.2 1.05-.183.126-.261.448-.489.524h-.45c-.227.124-.556.4-.825.489-.515.17-1.31-.074-1.576-.3-.616-.52-.235-1.158-.45-1.914l-.6-1.238c-.186-.678-.157-1.326-.376-1.95-.118-.335-.446-.507-.6-.789-.502-.915-1.041-1.613-1.839-2.213-.342-.257-.827-.32-1.163-.563-.248-.177-.618-.763-.826-.864-.174-.14-.637-.21-.863-.074-.234.11-.183.215-.3.451-.172.349-.76.636-1.238.675-.318-.227-.904-.4-1.126-.712-.225-.318-.244-.746-.45-1.09-.376-.624-.973-1.16-1.238-1.912-.131-.372-.032-.747-.188-1.05-.166-.324-.53-.581-.676-.901-.44-.97-.37-2.522-1.613-2.702-.402.606-.031.76-.225 1.238-.11.29-.409.427-.638.6l-.487-.074c-.496-.615-1.567-.685-2.026-1.313-.266-.364-.354-.858-.564-1.275-.252-.503-.696-.997-.938-1.502-.17-.356-.217-.702-.375-1.013l-.45-1.725-.413-.338c-.22-.296-.345-.588-.563-.9-.235-.339-.698-.624-.976-.938l-.15-.489c-.325-.446-.75-.9-1.05-1.387-.151-.246-.138-.539-.3-.788-.218-.337-.573-.398-.938-.601-.55-.305-.901-.947-1.389-1.313-.137-.102-.378-.183-.45-.337-.264-.565-.31-1.387.076-1.838.143-.169.437-.23.563-.413l.037-.412-.037.037c-.387-.091-.674.279-1.09.075-.874-.431-1.363-1.881-1.687-2.74v-.524l-.226-1.163c-.255-.836-.921-1.67-.562-2.814.15-.479.55-1.01.637-1.463l-.262-2.7c.153-.772-.016-1.656.075-2.515.048-.448.419-1.18.263-1.689-.15-.486-.495-.877-.75-1.238-.148-.207-.08-.47-.188-.712-.134-.302-.537-.612-.75-.863-.522-.613-1.028-1.71-1.727-2.101-.276-.155-.542.013-.863-.075l-.526-.3c-.29.024-1.187-.192-1.537-.376l-.376-.375c-.386-.214-.732-.227-1.013-.525l-.225-.487a92.572 92.572 0 0 0-.337-.263c-.192-.255-.362-.586-.6-.788l-.451-.15c-.212-.13-.438-.32-.638-.45-.41.114-.905-.09-.975-.526h-.188c-.067-.228-.304-.435-.413-.637-.244-.456-.516-1.039-.638-1.426-.082-.261-.054-.696-.262-.827-.242-.149-.701-.098-1.013-.224-.333-.133-.475-.502-.752-.676l-.787-.3c-.567-.47-.156-1.212-1.275-1.199-.312-.212-.96.043-1.389-.188l-.563-.526c-1.239-.615-4.517-1.222-4.877.45.394.786-.31 2.125-.863 2.29-.397.117-.978.088-1.502.15-.114.261-.356.364-.525.563-.17.2-.251.466-.413.674-.473.616-1.114.98-1.764 1.426-.171.12-.129.442-.261.6-.207.247-.853.493-1.201.563-.28.057-1.47-.288-1.876-.338-.098.075-.231.071-.338.15-.57.42-.437.922-1.463.976-.271.015-.442.026-.639-.113-.709-.978-.905-2.41-1.8-3.264-1.328.28-1.998-.764-3.002-1.238-.386-.182-.857-.068-1.163-.3-.366-.276-.575-.866-.976-1.088l-1.313-.188c-.113-.086-.226-.175-.337-.262-.698-.326-1.418-.483-2.064-.751l-1.577-.3c-.36-.15-.95-.5-1.35-.562-.327-.051-.67.295-.938.375-1.082.325-2.22.235-2.927-.3-.448.111-.836.222-1.164.45-.226.158-.379.468-.673.563-.523.169-.955.072-1.502.225-.487.136-1.257.346-1.727.45-.612.138-1.025-.145-1.612.074-.263.1-.645.191-.9.34-.35.2-.498.602-.939.749-.443.148-1.312.345-1.914.263-.346-.048-.608-.115-.938-.037-.326.758-1.25 1.586-2.102 1.8-.321.08-.572-.121-.9-.075l-.787.15c-.902-.226-1.014-1.1-.826-1.95.162-.094 1.1-.672 1.163-.789.173-.207.061-.5.038-.825-.393-.255-.672-.716-.788-1.237-.09-.406.269-.824.038-1.24-.065-.117-.953-.392-.976-.375-.403.331-.318.84-.488 1.426-.165.57-.592 1.006-.787 1.5v.489c-.048.196-.47.659-.639.75-.456.243-1.1.092-1.576.225-.366.102-.822.404-1.2.525-.25.08-.328-.054-.525-.037-.42.036-.722.113-1.127.224-.395.11-1.638.437-2.138.264-.33-.114-.676-.475-.975-.563-.11-.033-1.089-.067-1.239-.075-1.611-.091-2.654 1.092-4.24 1.274-.23.029-1.12-.325-1.388-.374-.115.083-.196.087-.263.225-.149.19-.091.485-.262.713-.075.1-.347.466-.45.525l-.339.075-.262.526c-.155.245-.53.264-.75.45-.439.37-.492.968-1.163 1.2a36.548 36.548 0 0 0-.113-.186c-.05.01-.1.024-.15.037-.358.304-.794.821-.788 1.425.2.055 1.065.284 1.35.112.78-.842 1.378-1.942 3.003-1.725.391.502.276 1.238.262 1.875.121.042.048-.01.113.076-.205.449.904 1.596.75 2.4-.17.879-1.475.905-2.026 1.427.134.745.453 1.656-.75 1.613l-.563.037c-.024.162-.253.477-.113.638.654.842 1.417.77 2.552 1.013l.674.075c.552.205 1.082.759 1.577.863l1.05.075c.47.112.938.365 1.351.525.755.294.787.083 1.201.751.108.174.263.35.3.6-.176.316-.404.772-.488 1.088-.07.261.063.715-.112 1.05-.378.725-1.112 1.598-2.252 1.238-.084-.026-.814-.283-.9-.337l-.6-.526c-.409-.15-.897.11-1.164-.037-.274-.117-.255-.386-.45-.564-.129-.116-.673-.242-.863-.337-.293-.146-.493-.466-.75-.637-.142-.095-.42-.003-.525-.038-.129-.042-.299-.193-.488-.225-.41-.07-.827.32-1.313.075-.286-.145-.134-.427-.264-.75l-.6-.487-.15-.601-.15-.038c-.34.215-1.094.275-1.425.564l.037.262c.673.474.801.672.488 1.5-.022.06.035.319-.038.45-.13.24-.484.448-.638.677-.33.489-.265.82-.825 1.124l-1.013.375c-.381.193-.565.568-1.163.563-.228.102-.65-.087-.863-.15-.224-.501-.066-.99.075-1.538-.274-.17-.412-.536-.676-.675-.114-.065-.223-.08-.412-.076-.184.765-.792 1.014-1.426 1.351-.214.114-.258.521-.488.638-.325.163-.654.182-.9.413-.275.257-.356.724-.788.825-.239.056-1.998-.387-2.102-.451-.196-.118-.399-.392-.637-.487-.623-.247-1.292-.286-1.877-.45-.244-.07-.46-.312-.675-.413a222.57 222.57 0 0 0-.714-.187c-.76-.35-1.455-.805-1.988-1.389-.064-.892.422-1.165 1.088-1.424v-.151c-.137-.123-.355-.195-.45-.263l-.488-.524c-.339-.168-.716-.104-1.088-.151-.547-.07-1.37-.585-1.689-.938-.22-.343-.08-.748-.224-1.05-.429-.899-2.166-1.561-3.04-.826-.034.028-.136.148-.224.226v.037c.255.057.366.219.599.375.887.59 1.222.553 1.013 1.95-1.46.94-3.653.217-5.064-.15-.646-.167-1.113.377-1.464.527-.322.135-1.714.155-2.064.037-.716-.242-1.407-.322-2.1-.6-.2-.08-.393-.275-.64-.338h-.787c-.694-.116-1.45-.218-2.14-.45-.385-.132-.639-.473-.937-.676-.229-.156-.58-.025-.75-.075-.512-.15-1.126-.392-1.763-.338-.62.052-2.047-.843-2.477-.713l-.45.301c-.317.132-.744.254-1.014.337l-1.575-.075c-.33-.029-.855.284-1.239.375-.743.179-1.567-.022-2.1.339-.16.107-.31.348-.488.45l-.75.262c-.101.08-.208.253-.339.3-.282.102-.513-.086-.712.075-1.106.896-2.24 1.356-3.79 1.838-.362.113-.598.304-1.088.263-.26.488-.945.41-1.426.675-.2.111-1.394 1.03-1.501 1.2-.37.597-.788 1.887-1.313 2.252-.337.234-.873.592-1.2.675-.32.081-.64-.011-.939.15-.274.148-.572.476-.825.676l-1.538 1.838c-.272.207-.613.298-.864.525-.984.896-1.877 1.91-2.851 2.814-.331.307-.784.454-1.163.712-.211.145-.332.41-.526.564a16.93 16.93 0 0 1-1.65 1.163c-.319.197-.61.666-1.051.712-.188.014-.375.025-.563.038-.528.233-1.076.638-1.577.863-.137.062-1.007.23-1.05.262-.096.076-.127.3-.224.376-.392.301-.925.385-1.352.637-.374.222-.599.694-1.013.9l-.599.113c-.612.212-1.165.767-1.69 1.088-.385.236-.994.426-1.312.713-.126.114-.19.319-.338.414-.258.163-.555.229-.789.412l-.561.675c-.888.458-1.712-.138-2.328.412-.47.422-.763 1.285-1.087 1.876-.226.412-.657.598-.938.938-.276.332-.466.62-.788.9-.71-.033-1.217-.133-1.764.263l-.45.638c.052.168.088.515.225.713.116.17.354.219.525.337.143.1.351.553.413.714.173.454-.122.817-.225 1.238l.037.788c-.09.356-.93 1.691-.637 2.176-.076.134-.237.56-.188.9.065.461.517.815.413 1.238l-1.013 2.364c-.265.917-.125 2.412-.225 3.376-.042.4.146 1.332.262 1.876l.038.75.825 1.501c.177.462.18.995.3 1.388.201.656-.198 1.384-.075 1.951.089.406.565.826.713 1.275.117.357.024.678.188.975l.225.151c.253.34.597 1.017.45 1.613-.076.306-.278.535-.375.788-.063.166-.07.477-.3.676-.762.498-2.588.612-3.377.075-.374-.254-.882-.702-1.313-.863-.339-.125-1.428-.453-1.726-.375-.9-.316-1.937-.539-2.852-.825-.483-.153-1.024.114-1.313.187-.214.053-.85.039-1.05.037-.819-.938-1.895-1.884-3.265-2.25-.48-.13-1.63-.02-1.951.037-.15.026-.545.156-.75.113-1.11-.232-1.851-1.116-2.702-1.651-.833-.524-1.651-.413-2.702-.413-.253-.329-.368-.719-.6-1.089-.15-.162-.3-.323-.45-.487-.11-.217.014-.428-.038-.638l-.263-.3-.337-1.351c-.215-.555-.607-1.188-.863-1.763-.183-.407.117-.858-.113-1.238-.238-.392-.611-.972-1.013-1.2l-.863-.3c-.32-.182-.835-.912-1.126-1.201-.02-.417.02-.724.113-1.05l-.113-.79c-.016-.39.539-.68.376-1.086-.306-.894-1.52-.78-1.539-1.876.333-.269 1.316-1.829 1.351-2.325l-.15-.677-1.313-.6c-.235-.18-.393-.497-.638-.675-.322-.234-.803-.192-1.163-.413-.21-.13-.322-.42-.488-.6-.124-.134-.557-.271-.713-.488-.253-.35-.346-.764-.6-1.125-.177-.251-.544-.264-.788-.451-.224-.17-.311-.488-.488-.712l-.338-.189-.075-.3c-.093-.173-.317-.4-.375-.6l.037-.487c.094-.48-.109-1.106-.3-1.35-.257-.33-.573-.797-.938-1.015l-.75-.224a6.102 6.102 0 0 1-.9-.638l-.226-.45c-.25-.273-.655-.388-.863-.713-.11-.17-.015-.392-.075-.638l-.187-.412-.038-1.463c-.054-.148-.256-.355-.338-.488l-.075-.45c-.254-.521-.62-1.252-.825-1.801-.14-.374-.079-.659-.263-.976-.09-.156-.297-.277-.413-.412-.21-.246-.108-.653-.3-.938-.143-.212-.456-.352-.6-.563-.068-.098-.245-.5-.188-.563-.13-.177-.38-.378-.488-.563-.295-.502-.026-.904-.15-1.462-.176-.798-.746-1.57-1.2-2.14-.15-.187-.412-.336-.563-.524l-.188-.338c-.18-.15-.43-.183-.563-.375-.369-.533-.68-1.056-1.2-1.425-.648-.461-1.556-.874-1.989-1.54-.601-.922-1.136-2.415-1.876-3.15-.373-.372-1.206-.306-1.801-.45-.48-.117-.905-.34-1.35-.413-.29-.048-1.71-.059-2.027 0l-.563.112c-.052-.015-.147-.167-.187-.187-.213.025-.426.049-.638.075l-.375-.226h-.188c-.669.188-1.294.231-1.951.075h-.826c-.376-.103-1.483-1.06-1.763-1.35-1.068-.008-1.97.607-2.514 1.162-.297.305-.846.23-1.238.451-.339.191-1.075 1.312-1.276 1.69-.293.55.282 1.647-.038 2.437-.109.27-.393.455-.6.638-.724.642-1.376 1.459-1.951 2.25-.494.681-.968 2.396-1.688 2.74-1.427.68-2.914.27-4.09-.525l-.6-.263c-.375-.306-.652-.767-1.201-.9-.297-.093-.505.254-.863.188-.331-.063-1.035-.518-1.351-.714-.325-.202-.406-.523-.638-.825-.325-.424-1.16-1.29-1.65-1.501-.253-.108-.53.073-.751.038l-.263-.15-.75-.076c-.315-.126-.722-.491-1.051-.6-.455-.15-.95-.192-1.2-.525-.2-.264-.25-.615-.451-.9-.315-.447-.817-.71-1.2-1.089-.182-.179-.17-.476-.3-.712-.188-.335-.627-.516-.789-.826l-.112-.487c-.153-.235-.534-.384-.676-.638-.515-.92-.748-2.026-1.463-2.739l.037-.45-.225-.113c-.017-.36-.257-.536-.15-.9.11-.375.53-.545.6-.9.109-.3-.077-1.137-.187-1.464-.114-.335.086-.833.15-1.05a66.362 66.362 0 0 1-.037-.038h-.075l-.338-.825c-.081-.116-.229-.097-.338-.188-.27-.224-.267-.658-.488-.938-.132-.167-.377-.294-.525-.45-.267-.28-.193-.786-.413-1.125-.18-.279-.523-.578-.713-.863-.24-.36-.06-.906-.262-1.276-.329-.288-.745-.44-1.013-.788-.326-.42-.296-1.069-.676-1.425-.817-.569-1.866-.507-2.701-1.126-.203-.15-.474-.418-.6-.638-.134-.232-.064-.522-.226-.713-.234-.275-.63-.15-1.013-.3 0 0-.486-.427-.563-.487-.706-.55-1.038-1.456-1.613-2.138-.138-.064-.275-.126-.413-.188l-.375-.526c-.193-.152-.434-.148-.638-.299-.092-.07-.527-.765-.563-.9v-.714c-.094-.364-.463-.911-.713-1.162-.437-.445-1.276-.51-1.913-.752-.467-.177-.747-.576-1.126-.825-.355-.232-.636-.187-.638-.788.133-.12.18-.317.225-.525l-.112-.038-.375-.037c-.15-.354-.573-.676-.75-1.013l-.15-.563c-.128-.284-.372-.66-.489-.938-.131-.313.005-.503-.3-.637-.233-.134-1.336-.373-1.5-.338-.205.044-.528.14-.676.075-.154-.073-.111-.125-.338-.15-.466-.218-1.289.065-1.876-.037-.575-.1-1.133.045-1.763-.15l-.863.037c-.572-.15-1.199-.356-1.764-.525-.354-.106-.547.061-.9-.038-.3-.113-.6-.224-.9-.338-.324-.06-.756.155-1.202.039-.64-.17-1.358-.29-1.95-.376-.31-.045-.709.14-1.126.037-.356-.087-.86-.237-1.276-.337-.51-.124-.874.02-1.35-.113-.479-.133-1.147-.43-1.69-.188-.044.302-.473.842-.562 1.276l.037.975c-.116.602-.209 1.352-.375 1.801-.212.577.013 1.481-.488 1.801-.394.253-1.783-.068-2.363 0l-3.828-.263c-.494-.105-1.385-.316-1.876-.225-.188.035-1.513.179-1.688.113l-.488-.375c-.273-.12-2.361-.337-2.74-.262-.59.117-1.312.032-1.95-.113h-1.651c-.225-.038-.366-.172-.525-.226h-1.013c-.485-.123-1.13-.216-1.614-.375-.232-.076-.717-.08-.975-.075-.44.01-1.54-.242-1.877-.337l-1.388.037c-.41-.087-.742-.177-1.125-.263-.427-.095-.895.089-1.426-.037-.459-.108-1.224-.298-1.651-.45l-.45.037c-.463-.053-1.064-.25-1.539-.375h-.563c-.786-.216-1.571-.494-2.401-.6-.103.172-.282.392-.488.45-.366.104-2.18-.696-2.514-.864-1.38-.688-2.635-1.67-3.865-2.512-.19-.13-.376-.121-.6-.226l-.638-.525c-.914-.533-1.792-.854-2.851-1.238-.888-.322-1.856-.665-2.702-.975-.283-.105-.73-.111-.938-.3-.9-.817-1.863-1.598-3.002-2.177-.252-.128-.298-.546-.562-.675-.55-.266-1.34-.264-1.839-.487-.735-.33-1.353-.917-2.026-1.314l-.526-.112-.526-.412-.524-.113c-.144-.08-.285-.276-.488-.338h-.3c-.393-.174-.374-.76-.675-1.013-.376-.316-1.049-.46-1.501-.714-.427-.237-.756-.808-1.163-1.087-.627-.426-1.359-.787-1.99-1.163-.362-.217-.712-.21-1.162-.375-.604-.221-1.143-.565-1.726-.787l-1.05-.226c-.677-.403-1.093-1.18-1.84-1.538-.358-.172-.626-.247-.9-.489-.21-.182-.313-.44-.563-.598-.39-.25-.814-.313-1.2-.564l-.226-.263c-.356-.175-.874-.028-1.275-.225l-.638-.563c-.427-.243-.879-.155-1.313-.375-.808-.405-1.06-1.338-.863-2.363-.328-.258-.399-.425-.413-.938-.155-.098-.314-.121-.6-.113-.229-.133-.432-.059-.75-.149-.648-.184-1.626-.303-2.29-.526-.34-.114-.87-.015-1.125-.075l-1.126.037a37.24 37.24 0 0 0-2.74-.525l-.75.076c-.129-.025-.425-.15-.6-.188-.639-.137-1.057.044-1.614-.075l-1.162-.226-.226-.225-.412.075c-.139.029-.814-.092-.938-.15-.149-.068-.236-.27-.376-.3-.473-.102-1.327.003-1.763.114-.6.15-1.287-.191-1.69-.265h-.974c-1.192-.335-2.33-.814-3.565-1.124l-1.463.112-.9-.187c-.273-.018-.622.174-.901.037-.288-.116-.175-.328-.3-.6-.226-.114-.492-.064-.6-.3-.126-.222.09-.302 0-.6l-.263-.3-.075-.676c-.156-.412-.517-1.16-.413-1.763.058-.338.45-.658.413-1.013l-.225-1.09c.022-.35.343-.634.225-1.086-.166-.631-.23-1.328-.113-1.951-.72-.568-1.542-1.03-1.913-1.951-.273-.677-.16-1.576-.526-2.138-.289-.448-.722-.552-1.2-.826-.404-.231-.512-.766-.827-1.087l-.862-.751c-.36-.608-.67-1.176-1.088-1.726-.214-.282-.11-.676-.376-.9-.52-.298-1.207-.175-1.725-.263-.319-.054-.534-.378-.9-.413l-.263.113c-.45.141-.592-.143-.826-.3-.317-.214-1.058-.813-.75-1.35.156-.315.702-.395.788-.751.09-.375-.264-.692-.376-.9-.51-.955-.926-.923-2.026-1.126l-.75.037c-.644-.154-1.056-.564-1.576-.788-.366-.156-.693-.126-1.05-.262-.674-.257-1.082-1.067-1.276-1.801-.796-.28-.75-.701-1.126-1.39-.096-.173-.334-.365-.413-.56-.102-.259 0-.455-.15-.639-.088-.107-.605-.784-.675-.825l-.375-.113-.226-.563c-.243-.446-.706-.816-.975-1.238-.832-.097-1.868.117-2.664-.225-.61-.262-.969-.82-1.614-1.05-.549-.196-.822.318-1.313.037-.328-.188-.631-.57-.975-.75l-.976-.262c-.541-.203-1.031-.52-1.65-.638-.105.145-.198.186-.451.187-.323-.23-.505-.5-.788-.75-.153-.134-.46-.08-.6-.225l-.376-.827c-.14-.165-.552-.379-.637-.56v-.79c-.172-.362.24-1.377.225-1.875-.015-.448-.066-1.016.15-1.35.116-.183.307-.337.375-.601.092-.354-.007-.627.113-.938l.412-.788c.106-.33-.032-.644.075-.975.109-.334.346-.466.375-.9-.293-.29-.604-.452-1.163-.489-.086-.143-.307-.389-.262-.636.023-.133.179-.367.112-.564-.17-.499-.372-1.213-.525-1.69-.156-.483-.576-.784-.826-1.161-.239-.362-.235-.873-.488-1.2l-.375-.226-.075-.413c-.17-.302-.408-.765-.525-1.125v-.3l-.3-.338c-.241-.383-.522-1.209-.675-1.613l-.188-1.05c-.13-.353-.673-.894-.9-1.239l-.113-.412c-.126-.319-.428-.558-.525-.938-.105-.406-.01-.972-.226-1.277a28.49 28.49 0 0 1-.225-.112c-.106-.157-.113-.307-.262-.411-.175-.089-.35-.176-.526-.264-.488-.59-.488-1.53-.675-2.251-.164-.022-.123.007-.188-.113-.146-.249-.106-.507-.225-.825l-.337-.6-.113-.563c-.145-.2-.399-.365-.488-.638-.158-.485.027-2.65.188-2.889.227-.336.974-.297 1.313-.525.216-.255.513-.828.6-1.163.1-.382-.298-.686-.112-1.088.105-.24.388-.33.488-.563.149-.349.088-.872.187-1.238-.187-.16-.275-.475-.488-.6-.347-.205-1.044-.086-1.425-.338-.22-.146-.22-.533-.413-.675-.24-.175-.518-.274-.713-.488l-.15-.3-.488-.262c-.366-.44-.613-1.194-.788-1.801v-.976l-.338-.525c-.083-.208-.012-.455-.037-.6l-.225-.525.037-.9c-.037-.326-.076-.651-.112-.976.128-.495.276-1.278.413-1.951.133-.656-.447-.776-.563-1.163-.238-.794.658-1.386.975-1.689-.01-1.103-.562-1.704-.638-2.7-.382-.088-.326-.34-.525-.601l-.45-.225-.114-.45c-.097-.166-.354-.354-.487-.526-.134-.173-.417-.172-.525-.375-.112-.236.092-.476.038-.713-.233-1.007.027-1.914-.188-2.963l.038-.526c-.109-.392-.505-.36-.676-.638-.105-.169-.216-.521-.262-.675-.211-.7.129-1.195-.038-1.876-.137-.56-.53-1.409-.938-1.725-.218-.17-.52-.187-.714-.376a184.83 184.83 0 0 0-.186-.637c-.154-.298-.49-.592-.638-.863-.15-.275-.133-.885-.3-1.2-.128-.242-.435-.382-.563-.601-.633-1.076-1.39-1.706-1.389-3.34l-.037-1.05c.273-.863.997-1.666 1.237-2.513-.011-.288-.024-.576-.036-.863 0-.323.086-.586.15-.788.071-.23-.114-.314-.15-.413-.049-.127.135-.693.187-.863.144-.474.738-.618.9-1.05l.038-.638c.032-.146.127-.397.075-.638l-.375-2.476-.188-.15c-.157-.298-.081-.689-.15-.938-.151-.551-.538-1.083-.788-1.538l-.3-1.65c-.063-.113-.262-.257-.337-.376-.156-.243-.182-.5-.338-.75-.104-.165-.3-.245-.375-.45-.129-.35-.015-.698-.113-1.126-.07-.3-.18-.562-.3-.9-.113-.317-.538-.72-.488-1.126.083-.674.412-1.334.6-1.913.076-.235-.054-.479.075-.638.091-.114.315-.148.413-.263.084-.1.054-.288.15-.375v-.038c.157-.114.35-.14.45-.3.154-.242.096-.577.263-.788.208-.26 1.206-.62 1.426-.938.91-1.314 1.47-2.824 2.214-4.314l.262-.225c.138-.263.045-.514.15-.825.042-.124.29-.825.376-.938.08-.106.222-.095.3-.226l.037-.862c.098-.34.289-.833.376-1.201v-.525l.3-.676c.14-.475.045-.865.15-1.425a9.772 9.772 0 0 0 .037-3.49c-.041-.23.076-.306.113-.412.094-.275-.06-.506.037-.788.086-.248.427-.601.376-.938-.168-1.095-1.256-1.863-1.464-3.039-.093-.523.15-1.14.263-1.575.202-.787.053-1.444.3-2.214.11-.34.401-.744.488-1.088v-1.2c.065-.557.461-1.641.263-2.29l-.188-.262.038-1.2c.127-.288.48-.456.637-.713.26-.425.497-1.432.863-1.688.404-.283.547-.288.826-.713.11-.17.062-.35.187-.488.292-.323.476.151.488-.638l.113-.713c.267-.643.761-1.362 1.05-1.988.204-.44.233-.941.488-1.35.57-.917 1.4-1.676 1.989-2.59.348-.54.26-1.437.563-1.988l.525-.825.45-1.576c.153-.356.539-.722.75-1.05.162-.249.117-.513.226-.826.07-.203.302-.506.375-.712l.038-1.088c.234-.612.717-1.291.938-1.951.487-1.46.644-3.305 1.275-4.728.354-.797.82-1.699 1.163-2.476.321-.728.425-1.445.826-2.1.396-.648 1.05-1.255 1.35-1.99l.263-1.312-.037-.525c.127-.635.504-1.178.675-1.726l-.037-.938.225-.488v-.338c.613-2.222 1.69-3.955 2.251-6.265.214-.136.405-.34.676-.413l.525.075c.52.105 1.009-.189 1.313-.412.165-.122.272-.025.338-.263l-.113-.3c-.322.12-.9.39-1.388.3-.338-.062-.439-.327-.675-.45l-.452-.113c-.56-.365-.912-1.705-.75-2.626.068-.383.012-.791.226-1.125.403-.628 1.094-.246 1.726-.6.188-.4.067-1.03.113-1.351.032-.238.227-.442.262-.75-.222-.184-.375-.508-.713-.563-.087.09-.157.105-.337.112l-.413-.3c-.1-.723.194-1.206.3-1.763l-.038-.713.15-.525c.54-.324 1.488.089 2.14.112.047-.083.037-.062.112-.112a66.362 66.362 0 0 0-.038-.038c-.282-.709-1.182-.71-1.538-1.313-.28-.472-.15-1.201-.15-1.876v-.525c-.146-.374-.438-.849-.6-1.238l-.113-.788-.225-.375c-.096-.422.404-1.15.525-1.651.21-.865-.11-1.708-.187-2.514-.042-.427.287-.907.225-1.275-.072-.419-.364-.61-.526-.9l-.337-.864c-.253-.414-.54-.536-.713-1.088-.082-.259-.36-.754-.263-1.125.204-.785.902-1.29 1.2-2.026.094-.231.226-.545.263-.75v-1.238c.147-.416.311-.9.413-1.276.116-.429.032-.945.375-1.126.374-.21.75.197 1.013.338.46.246 1.129.529 1.426.938.326.448.533 1.093.938 1.463.68.62 1.415 1.11 2.252 1.576.261.146.359.55.6.713.583.396 1.168.612 1.801.975l.15.225.488.038c.405.214.812.56 1.276.713h.712c.6-.011 1.599.255 2.177.412l.3-.037c.464.127.908.374 1.313.525.413.154 1.16.107 1.651.113.259.003.69.216.788.15.14-.04.198-.074.263-.188.19-.303.153-.696.3-.975.217-.415 1.657-1.396 2.326-1.388.408.514 1.076 1.506.375 2.213-.201.204-.645.399-.75.675-.495.723.476 1.577 1.126 1.726.04-.056.038-.037.075-.112-.312-.235-.285-.888-.114-1.351.086-.23.331-.37.451-.563.243-.39.302-1.315.188-1.8-.09-.383-.528-.406-.525-1.239.263-.243.7-.62.824-.975.175-.498-.245-2.229-.487-2.589-.172-.257-.493-.405-.675-.638-.267-.341-.262-.847-.488-1.238-.148-.255-.55-.27-.638-.6-.075-.28.19-.47.263-.638.175-.41.769-1.593 1.238-1.613.19.16.264-.017.525.075.752.263 1.469.653 2.327.75.328.038.781-.173 1.163-.037.427.152.87.448 1.35.563.617.146 1.477.062 2.14.3.561.202 1.21.557 1.8.713.678.179 1.763.217 2.514.375h.75c.707.154 1.313.444 1.877.713.352.167.882.212 1.2.337l1.088.15c1.044.295 2.131.34 3.19.676.899.285 1.838.437 2.777.712l1.426.526c.555.11 1.098.01 1.725.187 1.109.313 2.29.849 3.452 1.238l.6.038 1.388.45c.601.153 1.384.187 1.99.375l1.088.075.375.225 1.126.038c.15.053.964.278 1.088.375.288.224.633.499 1.05.6.307.075.647-.086.901-.037.792.152 1.63.494 2.401.713.376.106.665.01 1.088.112l2.552.563c.07.014.13-.1.263-.075.6.116 1.372.145 2.025.3 1.604.38 2.953.762 4.39 1.276.625.223 1.293-.09 1.952.037.674.132 1.75.199 2.626.375.237.049.479.162.638.225l1.389.038c.223.088.503.33.75.413.366.124.729.188 1.05.3l.676.075c1.302.358 2.857.493 4.09.975l1.013.038c.744.18 1.863.263 2.776.45h1.014c.842.136 1.974.26 2.776.45l1.238.038c.316.08.642.365.938.45.132.038.584.006.713.037 1.158.283 2.27-.515 3.377-.262.494.113.8.498 1.2.638l.564.075.638.487 2.926.9 1.013.113c.463.141.957.482 1.464.6l.563-.037c.264-.004.853.263 1.125.338.372.102.616-.06 1.013.037l.6.188.864-.075.6.262c.757.238 1.5.007 2.401.226 1.439.349 2.843.458 4.165.75l2.289.037c.156-.035.414-.189.675-.112.807.238 1.95.684 2.702.825 1.124.213 1.986.044 2.964.3l.788-.037c.289.072.705.275.976.375l1.05.038c.337.071.814.253 1.088.375h1.276c.608.147 1.48.292 2.101.412l.938-.112.826.263h1.163l1.426.225.938-.038.975.188c.221-.019.582-.154.826-.113.808.138 1.438.472 2.251.638h.788c1.333.278 3.077.283 4.24.675l.713-.037c.218.036.519.108.675.15l.488-.038c1.32.195 2.698.107 3.827.3.276.048.55-.195.9-.112.293.07.81.017 1.164.075.258.042.709.208.938.188.198-.017.777-.3 1.088-.226.2.048.584.205.788.263l.713-.037c.327.05.8.136 1.013.187l1.876-.112c1.268.272 3.044.409 4.278.562l.562-.075 1.501.038.75-.075c.32.064.666.223.939.3h.825l.563.263c.467.117 1.02.115 1.35.112l.376.15.488-.037c.3.067.761.196 1.088.262.391.08 1.17.065 1.613.075l.488-.037c.13.03.278.156.488.112.341-.071.8-.483 1.35-.375.67.131 1.357.602 2.064.788l.976-.113c.725.248 1.575.3 2.364.45.288.056.695-.09 1.088 0l1.576.45c.699.133 1.487.098 2.176-.037h.638c.27-.055.717-.19 1.013-.112 1.102.29 2.374.277 3.377.525l1.688-.075c1.606.374 3.25.27 4.878.15.223-.017 1.008.168 1.351.225l2.139-.037 2.476.412 3.49-.262c.344-.04 1.024.156 1.5.262.774.172 1.229-.05 1.99.075l1.763-.075c1.894.355 4.29.288 5.815-.112.455-.12 1.477.042 1.801.112.543.117 1.802.106 2.252 0 .643-.15 1.317.07 1.726 0 .148-.025.596.161.713.188h1.275a6.126 6.126 0 0 0 2.064.037l.938.113c1.06-.27 2.28-.035 3.377-.188l.826.038c1.13-.26 2.58-.386 3.864-.075l1.126-.038 1.576.15c.768.105 1.814-.241 2.664-.15.828.09 1.316.395 2.289.225 1.297-.225 2.85-.391 4.127-.712.742-.187 1.156.149 1.764.187.316.02.905-.213 1.35-.112 1.04.236 2.252.139 3.077.037l1.576.113c.218.039.275-.08.375-.113.066-.021 1.183.062 1.276.075l1.388.263.676-.225.487.075c.326.055.58-.104.825-.188l.938.038c.273-.052.596-.152.976-.075.494.1 1.22.295 1.764.375.343.05.964.029 1.276.112.357.096 1.504-.236 1.913-.337l1.2.15 1.388-.075c.186-.555.403-1.178.527-1.764.087-.413-.231-.777-.3-1.088-.153-.677.118-1.995.187-2.813l.75-.375c.472-.129.86.251 1.126.375l1.313.412c.342.152.614.53.863.788.045 1.767.699 3.105 1.088 4.615.334 1.295-.018 2.458.863 3.151.55.431 1.521-.047 2.138-.15 1.328-.219 1.912.652 2.252 1.576l.338.037c.428-.338 1.046.037 1.614-.075 1.77-.348 2.426-.11 3.188 1.276.57.014 1.11.194 1.577.113.632-1.086.638-1.855 2.026-2.251.523-.15.535-.334 1.238-.263.234.298.519.957 1.013.975h.825c.611.119 1.176.091 1.688.338.35.168.489.638.752.9.215.215 1.194.264 1.538.413.178.078.238.329.375.45.173.154.69.346.9.413 1.76.563 2.698-1.066 4.24-.263l.113.376c.111.471-.335.954.113 1.163.83.503 3.127-.234 2.438 1.613-.067.18-.114.448-.15.825.106.055.186.075.376.075h1.575c.854-.115 1.466-.46 2.14-.713l.487-.112c.245-.355.376-.725.638-1.05.27-.337 1.965-1.07 2.514-1.126.331.368.807.634 1.126 1.013.145.174.186.433.375.563.073.022.202-.051.3-.075h.675c.144-.05.23-.25.338-.338l.787-.3c1.108-.315 1.809.387 3.04.15.41-.08 1.32-.382 1.763-.113.33.2.401.685.564 1.05.53.068.887.348 1.312.451.5.122.888-.449 1.427-.375.225.03.894.472 1.125.6.311 1.92-1.38 2.459-2.627 3.264-.35.227-.875.154-1.2.375-.453.308-1.032.507-1.5.826-.2.136-.365.435-.601.525-.8.304-1.684.06-2.44.525-.438.27-.93.668-1.424.863-.312.122-.526.145-.789.3-.277.164-.524.492-.788.676l-.563.262c-1.007.76-1.927 1.777-2.664 2.814l-.525.375c-.198.184-.498.608-.639.825-.178.278-.195.597-.374.863-.172.256-.483.468-.639.75l-.374 1.164c-.23.393-.761.553-1.013.9-.376.519-.813 1.116-1.314 1.5-.184.143-.475.218-.6.414l-.15.675c-.327.45-.911.743-1.126 1.313a7.04 7.04 0 0 1-.038.225c.282.319.417.664 1.013.675.326-.402 2.023-.77 2.627-1.013 1.231-.492 2.387-1.04 3.415-1.688.45-.283 1.03-.322 1.463-.6.56-.358 1.068-1.16 1.876-1.2.232.185.62.278.788.525.614.898-.131 2.149-.487 2.888-.185.385-.74 1.268-.075 1.389.17-.095.861-.354 1.013-.376.598-.085 2.006.566 2.176.938.467.07.722.034 1.2-.075.027-.162.05-.325.075-.487.342-.218.905-.64 1.239-.788l.675-.075.3-.225.638-.15c.317-.184.348-.653.6-.9.39-.229.98-.306 1.464-.414.384-.564.608-1.417 1.238-1.725.373-.183.668.05.976.075.21.016.787-.103 1.05-.188.526-.17.845-.672 1.314-.863.795-.324 1.574-.326 2.213-.75.089-.059.974-.903 1.014-.976.061-.212.125-.425.187-.637l.375-.413v-.413c.084-.407.205-.796.413-1.088.285-.398 1.52-.364 1.801-.75.089-.25.175-.5.262-.75.243-.33.526-.68.789-1.014.467-.596 1.324-.796 1.95-1.238.318-.222.584-.627.901-.862.652-.483 2.594-1.05 3.49-1.276.39-.098.862.063 1.163.15.314.518.423.882.413 1.688l-.826.6c-.82.324-1.672.236-1.65 1.539l-.113.638c-.192.392-.955.67-1.314.9-.024.313-.05.625-.075.938-.232.162-.795.394-.938.638-.192.327-.215.633-.375.975-.167.359-.412.551-.45 1.013a.795.795 0 0 1 .037.038c.65-.367 1.161-.927 1.688-1.426.968.003 1.584.866 2.365.975.42.06.833-.259 1.163-.337.798-.19 1.513.49 1.801.863.35.454.332 1.101.563 1.688.14.358 1.612 1.983 1.838 2.1h.3c.219.06.578.304.901.226.747-.18 1.903-1.025 3.002-.75.33.082.765.245.938.487.123.173.08.33.3.413l.525-.037c.091-.14.168-.266.375-.3.308-.155 1.552-.08 2.063-.188l.489-.826c.343-.446 1.335-.91 1.839-1.238.495-.32.914-.94 1.5-1.163l1.989-.112c1-.168 1.7-.432 2.664-.676.583-.146 1.286-.204 1.914-.412.537-.179.667-.575 1.35-.488l.075-.263c1.482-.26 1.9-1.14 3.753-1.05.28.363.698 1.186.525 1.95-.098.434-.534.853-.301 1.314.217.52 1.995 1.04 2.777.863 1.028-.232 1.798-.733 2.702-1.05l1.162-.15c.338-.082.91-.33 1.352-.188.3.096.37.472.6.638.274.197.719.318.787.712.409.672-.333 1.42-.149 1.951.043.128.241.311.3.45l.264 1.464c.157.37.705.917.938 1.275.192.005.292.052.523 0 .09-1.218.556-1.662 1.615-1.95.201-.056.47-.185.713-.113.24.071.635.364.863.488.585.319 1.685.539 1.388 1.688-.113.434-.333.668-.6.938-.354.356-.72.795-1.202 1.013-.532.241-1.132-.063-1.613-.038l-.788.188c-.818-.127-2.108-.373-2.775-.413-.94-.056-1.711 1.212-2.328 1.013-.41-.18-.556-.71-1.125-.75-.405.48-.94.435-1.577.713-.308.134-.56.396-.975.45-.245.031-.288-.18-.45-.225-.308-.087-.892-.024-1.276-.075-.348-.048-.612.279-.976.187l-.637-.375c-.386-.125-.615-.078-1.013-.188-.125-.034-.214-.193-.301-.225h-.038c-.187-.04-.369.12-.487.15l-.6-.075c-.929.026-1.818.982-2.514 1.501l-.6.225c-.145.085-.251.261-.451.3-.443.087-1.088-.04-1.537.075l-.564.263c-.322.09-.612-.046-.975.037l-.601.226-.337-.075c-.302.017-.683.191-.938.375-1.108.794-.356 2.084-2.177 2.626-.382.113-.539.233-.974.112-.072-.157-.139-.374-.302-.45h-.038c-.884.46-1.703 1.16-2.963 1.2l-.375-.412h-.3c-.203.314-.486.573-.638.938-.259.619-.314 1.223-.526 1.876-.244.751-1.034 1.093-1.275 1.838-.086.266.023.948-.075 1.313-.178.658-.73.997-.976 1.539l-.263 1.013a21.91 21.91 0 0 1-.75 1.65c-.202.409-.443 1.004-.788 1.276l-.788.563c-.067.099-.587.64-.526.675-.163.569.093 1.081-.113 1.65-.325.906-1.194 1.092-1.013 2.29l.226.037c.196-.322.712-.643 1.088-.788.076-.733.115-1.186.6-1.576l.489-.375c.155-.212.14-.518.3-.713l1.688-1.538.563-.825c.095-.24.028-.526.15-.713.295-.453.869-.686 1.163-1.126.381-.57.636-2.237 1.425-2.288l.301.112c.478.796.621 3.213.225 4.09-.18.398-.693.613-.9 1.05-.324.684.114 1.553-.263 2.326l-.563.826-.15.6a30.976 30.976 0 0 1-.638 1.576l-.225 1.05c-.08.232-.316.625-.337.9-.091 1.172 1.091 1.58.75 3.152-.154.711-.889.86-1.201 1.388-.52.881-.567 1.992-.788 3.19-.062.34.362 2.344.488 2.7.088.249.364.683.3 1.013-.163.852-.317 1.78-.6 2.589-.09.258-.325.563-.413.863v1.163c-.04.417-.583.989-.375 1.538.078.207.35.412.45.6l.263 1.238c.15.702-.122 1.873.075 2.552.12.417.56.662.712 1.125l.301 1.126c-.012.362-.026.725-.037 1.088.105.466.218 1.097.337 1.613l.075.9c.077.199.238.258.262.563-.362.553-.462 1.891-.112 2.551l.563.713c.162.257.236.621.45.826l.6.375c.446.592.64 1.62.826 2.438.087.381.011.72.188 1.088.625 1.306 1.487 1.238 2.626 1.951.427.267.515.63 1.164.713.75-.863 2.172-1.011 3.189-1.613l.638-.563c.097-.21-.03-.451.224-.638.4-.292.909-.36 1.314-.638.293-.2.468-.46.826-.637.081-.884.054-2.14.375-2.852l.413-.412c.336-.49.692-1.202.862-1.801.246-.862-.02-2.173.264-2.964.047-.133.213-.33.262-.488.158-.513.162-1.23.262-1.688.013-.3.026-.6.037-.9.139-.502.338-1.214.189-1.876-.145-.644-.77-.922-1.014-1.464-.197-.44-.082-.873-.225-1.425-.155-.6-.488-1.735-.788-2.214-.089-.142-.268-.251-.375-.375l-.638-1.275c-.2-.281-.567-.469-.75-.788-.238-.416-.112-.872-.3-1.351l-.864-.938-.15-.6-.336-.525c-.282-.795.347-1.914.561-2.439.163-.397.36-1.707.301-2.214-.072-.617-.557-1.188-.675-2.025-.098-.69.497-1.679.675-2.289.152-.522-.035-.982.076-1.538l.561-2.326-.075-.9.226-.751c-.053-.815-.449-1.593-.45-2.551.423-.284.954-.503 1.65-.413.165-.248.353-.472.413-.825-.356-.461-.229-1.342-.225-2.026.976-.616 2.067-1.402 2.74-2.326.226-.312.1-.79.3-1.163.174-.326 1.25-1.281 1.726-1.313l.487.112c.1.223.36.297.488.488.128.193.137.458.262.638v-.038c.415-.582-.133-1.384-.15-2.026.498-.58 1.165-1.547 1.913-1.838.525-.204.76.242 1.202.187.395-.049.723-.323.938-.45v-.037c-.708-.089-1.063-.64-1.202-1.313-.011-.238-.024-.476-.036-.713-.171-.437-.587-1.036-.338-1.689.068-.181.34-.642.525-.712l.338-.038c.946-.571 1.464-1.766 2.777-1.988.114.118.281.118.412.225.11.088.517.694.6.825.13.204.072.39.263.525.411.188.878-.254 1.2-.337.595-.153.766.201 1.127.3l1.05-.075c.254.064.522.252.712.337l.677.076c.258.072.9.499 1.162.675.362.242 1 1.095 1.464 1.125.33.184.762.058 1.2.188.58.172.917.774 1.652.938.879.196 1.389-.449 2.063-.188.376.666.445 1.317.863 1.914.182.26.442.342.713.525l.412.525c.01.54-.066 1.217-.45 1.463-.326.21-.653.115-.712.6-.106.674.697.836 1.162 1.164.118.082.983 1.355 1.05 1.538.285.76.364 2.107.077 2.889.199.72.457 2.081.15 3.001-.093.277.124.688.112 1.088-.47.2-.723.769-1.088 1.088-.227.2-.641.291-.788.563-.047.088-.125.386-.15.525-.092.504.051 1.733-.188 2.064-.383.531-1.26.94-1.876 1.238-.038.31.025.496.113.712.097.24-.012 1.602-.113 1.876-.082.223-.022.749.038.826.271.235 1.803.314 2.026.225.722-.307.869-1.16 1.126-1.951l.45-1.013c.09-.334-.044-.529.074-.825l.189-.188-.075-.188c0-.036.327-.684.375-.75.16-.218.596-.185.863-.3.38-.164.733-.613 1.126-.826l.787-.15c.566-.299 1.106-1 1.914-1.013.242.205.571.298.788.526.362.379.669.928 1.126 1.2l.374.075c.238.095 1.22.677 1.352.863.327.465.094.89.3 1.5.374 1.109.29 1.975.488 2.927.011.263.025.525.037.788.239.723.487 1.703.788 2.589.178.522.635 1.164.938 1.613.507.752.905 2.225 1.088 3.151.116.59-.35 1.351-.488 1.914-.285 1.166-.174 2.012-.262 3.076-.71.601-2.266 1.973-2.59 2.852-.353.956-.057 1.888-.074 2.888-.736.186-1.182 1.336-1.388 2.064l.075 1.576c-.211.815-.656 1.154-1.051 1.725-.255.368-.305.782-.525 1.201-.082.156-.264.215-.376.338-.366.399-.527 1.048-.412 1.65.297.04.856.292 1.313.45l.525.038c.254.119.427.475.713.563l.45-.075.488.037c.616-.112 1.256-.678 2.064-.487.808.19.944 1.033 1.5 1.463l.6.187c.273.12.439.406.752.488h.712c.171.046.647.266.75.188.451-.248.721-.705 1.164-.938.266-.14.513-.104.825-.225l.487-.3.752-.113c.22-.103.464-.325.75-.375.183-.032.289.077.412.112l1.164-.075c.423-.587 1.089-.864 1.65-1.313.389-.31.475-.994.863-1.313.746-.612 1.471-1.362 2.327-1.838.487-.271.968-.335 1.463-.6.551-.294 1.025-1.822 1.577-2.214.211-.15.491-.168.712-.3.513-.308.977-.837 1.5-1.126.407-.223 1.025-.517 1.502-.75l.45-.075c.444-.201.725-.54 1.089-.788l.75-.375.675-.825c.388-.315.738-.727 1.125-1.013.382-.281.905-.39 1.164-.788.484-.746 1.027-1.394 1.688-1.951l.563-.3.713-.638c.217-.131.527-.182.675-.375.13-.168.323-.391.414-.563.061-.225.125-.45.187-.675.245-.384.71-.584.976-.938.218-.292.43-.604.713-.826.31-.245.682-.369 1.013-.6l.112-.338c.35-.442.908-.62.9-1.425-.35-.7 1.245-1.557 1.427-1.839.273-.425.286-1.392.337-1.988-.111-.094-.194-.281-.262-.413l-.301-.037-.525.45c-.711.066-1.192-.153-1.163-.938-.118-.414-.018-1.036-.188-1.463-.137-.25-.276-.5-.412-.75-.147-.477-.091-.808-.263-1.239-.162-.405-.364-.34-.375-1.05.38-.304 1.247-.958 1.726-1.088.265-.073.568.055.675.075l1.388-.3c.624-.3 1.215-.792 1.839-1.126l.938-.225c.265-.1.603-.358.863-.45l.976-.188c.757-.476 1.846-.74 2.925-.675.333.02.875-.352 1.202-.45.599-.18 1.09.287 1.463.375.407.096.824-.03 1.2.075.075.282.252.378.414.563l.788-.3h.375c.856-.441 1.8-1.087 2.851-1.313.338-.073.547.173.788.225.475.101 1.78.016 2.213-.3.354-.259.39-.91.64-1.276.147-.22.406-.555.6-.75l.487-.376c.2-.397.205-.722.488-1.013.261-.269.784-.258 1.126-.45l.9-.638c.324-.19.707-.147.976-.375l.374-.525c-.104-.581-.564-1.688-.825-2.138-.096-.096-.101-.06-.113-.263-.13-.278.06-.559.113-.75l.075-.788c.205-.685.523-.933-.3-1.238l.038.075h-.075l-.714-.188c-.47-.283-.735-.95-.75-1.688l.075-.638c-.065-.378-.42-.5-.487-.938.227-.228.43-.674.788-.9.337-.214.842-.156 1.125-.413l.112-.3.376-.3c.254-.457.396-.682.75-1.013.02-.361-.095-.675.038-1.05.228-.649.848-1.046 1.2-1.576.197-.294.058-.469.188-.863l.863-1.651c.011-.051-.05-.188.038-.338.09-.155.332-.2.487-.3.235-.15.32-.412.488-.638.193-.26.508-.384.75-.6.212-.188.83-.983.939-1.238l.112-.525c.317-.425.748-.658.976-1.2.118-.01.032.05.113-.038v-.113c.73-.508 1.281-1.264 1.876-1.913h.261c.116.168.245.255.527.262.167-.097.456-.29.6-.337l.413.037.15-.225 1.05-.375.526-.038c.246-.115.527-.455.825-.562l.826.037c.995-.133 2.087.2 3.076-.112.702-.222 1.301-.653 1.951-.9.75-.287 1.603-.125 2.326-.338.305-.09.466-.35.714-.45l1.688-.45c.738-.381 1.701-.735 2.514-1.014 1.15-.394 2.31-.57 3.376-.975l1.088-.225c.267-.136.6-.523.9-.6l.302.074c.67-.115 1.556-.412 2.251-.6l.638-.037c.143-.048.194-.19.3-.263.254-.173.497-.083.826-.225.061-.063.125-.125.187-.188.407-.156.633.079 1.013-.037.64-.195 1.661-.311 2.252-.638.377-.441.347-1 .562-1.726.196-.66.59-.947.863-1.426.204-.356-.115-.8.038-1.163.564-1.337 1.967-1.831 2.926-.487.097-.044.168-.064.226-.15.217-.259.24-.75.563-.9.41-.237 1.109.033 1.538-.113l.038-.3v-.676c-.074-.457-.33-1.16-.338-1.575-.01-.502.607-1.424.787-1.876.188-.468-.224-.792-.038-1.313.147-.406.662-.704.864-1.051l.413-1.05c.242-.423.587-.91.788-1.351-.293-.421.383-1.19.45-1.613-.516-.426-1.266-1.05-1.501-1.726l-.15-.638c-.172-.408-.65-1.015-.412-1.8.19-.635 1.31-2.038 1.275-2.552-.011-.163.108-.472.038-.713-.066-.228-.23-.51-.3-.75l.225-1.913c.094-.287.347-.515.412-.826.177-.833-.743-1.08-.6-1.838.094-.495.36-.856.525-1.238l.376-1.276c.092-.177.321-.39.412-.563l.225-1.425.413-.826c.04-.191-.062-.359.038-.562.192-.391.582-.807.675-1.201.279-1.177 1.117-1.783 1.538-2.701l.113-.713c.235-.616.939-1.141 1.763-1.163.46.393.949.757 1.201 1.35.2.47-.035 1.038.338 1.276.665.373 2.224-.551 2.664-.938.236-.208.355-.547.524-.825.272-.445 1-.634 1.427-.938l.412-.488.601-.3c.071-.05.053-.17.113-.225.644-.583 2.511-.003 3.19.187l.374-.037.6.188.45.375.751.375.676.75.6.263c.247.174.563.715.713.975.308.536.533 1.638.488 2.289l-.039 1.013c.156.768.68 1.304.977 2.026.156.38-.043.901-.076 1.163-.034.273.176 1.355.3 1.726.115.34.425.518.563.787.28.542.25 1.371.489 2.101.114.349.357.463.524.713l.226.788.712.713.076.45c.13.264.443.537.563.826.388.936-.008 2.302.375 3.076.224.454.92 1.028 1.426 1.2l.45-.074c.705-.169 1.327-.452 1.914-.188.199.09.437.107.562.263.221.275.185.662.338 1.013.243.556.503 1.103.712 1.8.067.219-.07.305-.112.45-.141.503.114 1.444.413 1.876 0 0 .7-.113.863-.225.191-.13.335-.327.526-.375.326-.082.565-.194.825-.262.474-.125.964.39 1.163.6.459.483.793 1.328 1.125 2.026.19.4.096.737.301 1.05zm-226.78 268.28c.013-.013.024-.025.038-.037-.48.024-1.134-.746-1.651-.893v.074c-.215-.022-.56.202-.638.334.076.1.048.092.075.223.46.005.784.65 1.2.746.35-.147.81-.108.976-.446zm.608 1.657c-.054-.056-.04-.066-.115-.112h-.114c-.038.012-.076.026-.113.036v.114h.15v.112c.136-.052.002-.023.191 0zm.105-.034h-.075l.037.115h.038zm46.638-226.008c.896-.288 1.473-2.476.64-3.188l-.226.75-.3.187c-.441.46-.469 1.341-.375 2.026l.261.225zm70.774 238.048c.257-.347.516-1.416.49-1.913-.431-.331-.906-.843-1.621-.863l-.151.037c-.045.074-.178.241-.114.3.306.315.571.315.68.863.103.527-.403 2.27-.038 2.439v-.038c.125-.186.172-.423.338-.562.131-.109.315-.126.416-.263zm48.696-122.15c-.322-.254-.366-.377-.826-.456 0 .34.128.52.263.721.206-.056.428.032.525-.151l.038-.114zm-9.524-56.244c-.077.093-.141.104-.267.152.084.204.01.35.038.57h.038c.041-.268.289-.472.19-.722zm.819 11.067c.09-.358 1.034-1.32.9-1.426-.107-.187-.377-.166-.675-.15-.132.112-.626.05-.863.075-.295-.427-.597-.981-.6-1.688.19-.132.934-.862.975-1.088-.495-.725.048-1.748-.15-2.664-.082-.379-.655-.714-.9-.976.027-.404.027-1.554-.113-1.763l-.15.038v.075c-.124.435-.438.948-.526 1.463.091.054.505 1.752.45 1.95-.13.474-.43 1.016-.6 1.464l.038.525c-.033.193-.089.832-.15 1.05-.098.343.433 1.075.225 1.426.335.64.64 1.18.863 1.951l.037.713c.179.514.63.62 1.088.863.126.068.35.535.563.375.327-.464-.558-1.638-.412-2.213z"/></defs><g><g clip-path="url(#clip-E5273233-C2FC-0460-A953-AD0391090E15)" transform="translate(-150 -1048)"><use fill="#1975e6" xlink:href="#7240a"/></g></g></svg>