<svg xmlns="http://www.w3.org/2000/svg" xmlns:xlink="http://www.w3.org/1999/xlink" width="21" height="21" viewBox="0 0 21 21"><defs><path id="ry7ma" d="M1303 92c0-3.85 3.15-7 7-7s7 3.15 7 7-3.15 7-7 7-7-3.15-7-7zm18.737 10.513l-5.25-5.25c1.225-1.488 2.013-3.413 2.013-5.513 0-4.813-3.938-8.75-8.75-8.75-4.813 0-8.75 3.938-8.75 8.75 0 4.813 3.938 8.75 8.75 8.75 2.1 0 4.025-.7 5.513-2.013l5.25 5.25a.945.945 0 0 0 .612.263.945.945 0 0 0 .613-.263.846.846 0 0 0 0-1.224z"/></defs><g><g transform="translate(-1301 -83)"><use fill="#114c97" xlink:href="#ry7ma"/></g></g></svg>